<svg width="56" height="57" viewBox="0 0 56 57" fill="none" xmlns="http://www.w3.org/2000/svg">
<rect y="0.75" width="56" height="56" rx="10" fill="#878787"/>
<path d="M22.6207 18.1439H21.2966C19.4426 18.1439 18.5156 18.1439 17.8075 18.5139C17.1846 18.8392 16.6782 19.3585 16.3608 19.9971C16 20.7231 16 21.6735 16 23.5742V37.3197C16 39.2205 16 40.1709 16.3608 40.8969C16.6782 41.5355 17.1846 42.0547 17.8075 42.3801C18.5156 42.75 19.4426 42.75 21.2966 42.75H34.7034C36.5574 42.75 37.4844 42.75 38.1925 42.3801C38.8154 42.0547 39.3218 41.5355 39.6392 40.8969C40 40.1709 40 39.2205 40 37.3197V23.5742C40 21.6735 40 20.7231 39.6392 19.9971C39.3218 19.3585 38.8154 18.8392 38.1925 18.5139C37.4844 18.1439 36.5574 18.1439 34.7034 18.1439H33.3793M25.269 21.5379H30.731C31.658 21.5379 32.1215 21.5379 32.4756 21.3529C32.787 21.1902 33.0402 20.9306 33.1989 20.6113C33.3793 20.2483 33.3793 19.7731 33.3793 18.8227V17.4652C33.3793 16.5148 33.3793 16.0396 33.1989 15.6766C33.0402 15.3573 32.787 15.0977 32.4756 14.935C32.1215 14.75 31.658 14.75 30.731 14.75H25.269C24.342 14.75 23.8785 14.75 23.5244 14.935C23.213 15.0977 22.9598 15.3573 22.8011 15.6766C22.6207 16.0396 22.6207 16.5148 22.6207 17.4652V18.8227C22.6207 19.7731 22.6207 20.2483 22.8011 20.6113C22.9598 20.9306 23.213 21.1902 23.5244 21.3529C23.8785 21.5379 24.342 21.5379 25.269 21.5379Z" stroke="#FDFDFD" strokeLinejoin="round"/>
</svg>
