<svg width="56" height="57" viewBox="0 0 56 57" fill="none" xmlns="http://www.w3.org/2000/svg">
<rect y="0.75" width="56" height="56" rx="10" fill="#3F51B5"/>
<path d="M21.1979 26.7508H19.9179C18.1257 26.7508 17.2296 26.7508 16.5451 27.0996C15.943 27.4064 15.4534 27.8959 15.1466 28.498C14.7979 29.1825 14.7979 30.0786 14.7979 31.8708V36.8308C14.7979 38.623 14.7979 39.519 15.1466 40.2036C15.4534 40.8057 15.943 41.2952 16.5451 41.602C17.2296 41.9508 18.1257 41.9508 19.9179 41.9508H21.1979M21.1979 26.7508H21.2668C21.959 26.7508 22.3051 26.7508 22.5959 26.632C22.8526 26.5272 23.0777 26.3574 23.249 26.1394C23.4431 25.8924 23.5382 25.5596 23.7283 24.8941L26.0668 16.7094C26.2628 16.0236 26.8896 15.5508 27.6029 15.5508C29.3674 15.5508 30.7979 16.9812 30.7979 18.7458V22.5908C30.7979 23.4869 30.7979 23.9349 30.9722 24.2772C31.1256 24.5782 31.3704 24.823 31.6715 24.9764C32.0137 25.1508 32.4618 25.1508 33.3579 25.1508H35.4859C37.7902 25.1508 38.9355 25.1508 39.7099 25.6306C40.3883 26.051 40.9 26.7097 41.1179 27.4774C41.3665 28.3539 41.0309 29.4617 40.3979 31.6774L38.5259 38.2374C38.1455 39.5685 37.9541 40.234 37.5659 40.728C37.2232 41.164 36.7832 41.5035 36.2699 41.7132C35.6882 41.9508 34.9982 41.9508 33.6139 41.9508H21.1979M21.1979 26.7508V41.9508" stroke="#FDFDFD" strokeLinejoin="round"/>
</svg>
