<svg width="15" height="17" viewBox="0 0 15 17" fill="none" xmlns="http://www.w3.org/2000/svg">
<path d="M5.31818 5.54545H1.90909C1.40701 5.54545 1 5.95247 1 6.45455V15.0909C1 15.593 1.40701 16 1.90909 16H5.31818M5.31818 5.54545V16M5.31818 5.54545V1.90909C5.31818 1.40701 5.7252 1 6.22727 1H8.95455C9.45662 1 9.86364 1.40701 9.86364 1.90909V9.18182M9.86364 9.18182V16M9.86364 9.18182H13.2727C13.7748 9.18182 14.1818 9.58883 14.1818 10.0909V15.0909C14.1818 15.593 13.7748 16 13.2727 16H9.86364M9.86364 16H5.31818" stroke="#424242" strokeLinejoin="round"/>
</svg>
