<svg width="20" height="20" viewBox="0 0 16 16" fill="none" xmlns="http://www.w3.org/2000/svg">
<path fill-rule="evenodd" clip-rule="evenodd" d="M8 1.5C6.96191 1.5 5.68097 1.82885 4.64652 2.50842C3.60219 3.19449 2.76316 4.27471 2.76316 5.76316V5.77807V5.79296V5.80782V5.82265V5.83746V5.85224V5.867V5.88173V5.89644V5.91112V5.92577V5.94039V5.955V5.96957V5.98412V5.99864V6.01314V6.02761V6.04205V6.05647V6.07087V6.08523V6.09957V6.11389V6.12818V6.14244V6.15668V6.17089V6.18507V6.19923V6.21337V6.22747V6.24156V6.25561V6.26964V6.28365V6.29762V6.31158V6.3255V6.3394V6.35328V6.36713V6.38095V6.39475V6.40852V6.42227V6.43599V6.44968V6.46335V6.47699V6.49061V6.5042V6.51776V6.5313V6.54481V6.5583V6.57176V6.5852V6.59861V6.61199V6.62535V6.63869V6.65199V6.66528V6.67853V6.69176V6.70497V6.71814V6.7313V6.74442V6.75753V6.7706V6.78365V6.79668V6.80968V6.82265V6.8356V6.84852V6.86141V6.87429V6.88713V6.89995V6.91274V6.92551V6.93825V6.95097V6.96366V6.97633V6.98897V7.00158V7.01417V7.02673V7.03927V7.05178V7.06427V7.07673V7.08916V7.10157V7.11396V7.12632V7.13865V7.15096V7.16324V7.1755V7.18773V7.19993V7.21211V7.22427V7.2364V7.2485V7.26058V7.27263V7.28466V7.29666V7.30863V7.32058V7.33251V7.34441V7.35628V7.36813V7.37996V7.39175V7.40353V7.41527V7.42699V7.43869V7.45036V7.46201V7.47363V7.48522V7.49679V7.50833V7.51985V7.53135V7.54281V7.55426V7.56567V7.57706V7.58843V7.59977V7.61109V7.62238V7.63364V7.64488V7.6561V7.66728V7.67845V7.68959V7.7007V7.71179V7.72285V7.73389V7.7449V7.75589V7.76685V7.77778V7.78869V7.79958V7.81044V7.82128V7.83209V7.84287V7.85363V7.86436V7.87507V7.88576V7.89642V7.90705V7.91766V7.92824V7.9388V7.94933V7.95984V7.97032V7.98078V7.99121V8.00162V8.012V8.02236V8.03269V8.04299V8.05328V8.06353V8.07376V8.08397V8.09415V8.10431V8.11444V8.12454V8.13462V8.14468V8.15471V8.16471V8.17469V8.18465V8.19458V8.20448V8.21436V8.22422V8.23405V8.24385V8.25363V8.26339V8.27312V8.28282V8.2925V8.30216V8.31179V8.32139V8.33097V8.34053V8.35006V8.35956V8.36904V8.3785V8.38793V8.39733V8.40671V8.41607V8.4254V8.4347V8.44398V8.45324V8.46247V8.47168V8.48086V8.49001V8.49915V8.50825V8.51733V8.52639V8.53542V8.54443V8.55341V8.56237V8.5713V8.58021V8.58909V8.59795V8.60678V8.61559V8.62437V8.63313V8.64186V8.65057V8.65926V8.66792V8.67655V8.68516V8.69375V8.70231V8.71084V8.71935V8.72784V8.7363V8.74474V8.75315V8.76154V8.7699V8.77824V8.78655V8.79484V8.8031V8.81134V8.81955V8.82774V8.83591V8.84405V8.85216V8.86025V8.86832V8.87636V8.88438V8.89237V8.90034V8.90828V8.9162V8.92409V8.93196V8.9398V8.94762V8.95542V8.96319V8.97093V8.97866V8.98635V8.99403V9.00167V9.0093V9.01689V9.02447V9.03202V9.03954V9.04704V9.05452V9.06197V9.0694V9.0768V9.08418V9.09153V9.09886V9.10616V9.11344V9.1207V9.12793V9.13513V9.14231V9.14947V9.1566V9.16371V9.1708V9.17785V9.18489V9.1919V9.19889V9.20585V9.21278V9.2197V9.22659V9.23345V9.24029V9.2471V9.25389V9.26066V9.2674V9.27412V9.28081V9.28748V9.29413V9.30075V9.30734V9.31391V9.32046V9.32698V9.33348V9.33996V9.34641V9.35283V9.35923V9.36561V9.37196V9.37829V9.38459V9.39087V9.39713V9.40336V9.40957V9.41575V9.42191V9.42804V9.43415V9.44024V9.4463V9.45233V9.45835V9.46434V9.4703V9.47624V9.48216V9.48805V9.49392V9.49976V9.50558V9.51137V9.51714V9.52289V9.52861V9.53431V9.53999V9.54564V9.55126V9.55686V9.56244V9.568V9.57352V9.57903V9.58451V9.58997V9.5954V9.60081V9.60619V9.61156V9.61689V9.6222V9.62749V9.63276V9.638V9.64321V9.64841V9.65357V9.65872V9.66384V9.66893V9.67401V9.67905V9.68408V9.68908V9.69405V9.69901V9.70393V9.70884V9.71372V9.71857V9.7234V9.72821V9.733V9.73776V9.74249V9.7472V9.75189V9.75656V9.7612V9.76581V9.77041V9.77497V9.77952V9.78404V9.78854V9.79301V9.79746V9.80188V9.80629V9.81066V9.81502V9.81935V9.82365V9.82793V9.83219V9.83643V9.84064V9.84482V9.84899V9.85313V9.85724V9.86133V9.8654V9.86944V9.87346V9.87746V9.88143V9.88538V9.88931V9.89321V9.89708V9.90094V9.90477V9.90857V9.91236V9.91611V9.91985V9.92356V9.92725V9.93091V9.93455V9.93817V9.94176V9.94533V9.94887V9.95239V9.95589V9.95937V9.96282V9.96624V9.96965V9.97303V9.97638V9.97971V9.98302V9.98631V9.98957V9.9928V9.99602V9.99921V10.0009L1.54173 12.8C1.47428 12.9546 1.4893 13.1328 1.58168 13.2739C1.67406 13.415 1.83135 13.5 2 13.5H5.15875C5.79052 14.6316 6.74305 15.2868 7.78387 15.2868C8.82468 15.2868 9.77722 14.6316 10.409 13.5H14C14.1687 13.5 14.3259 13.415 14.4183 13.2739C14.5107 13.1328 14.5257 12.9546 14.4583 12.8L13.2368 10.0009V5.76316C13.2368 5.7492 13.2363 5.73525 13.2351 5.72135C13.1765 5.02364 12.9142 3.96774 12.1236 3.07887C11.3181 2.17328 10.0162 1.5 8 1.5ZM9.21041 13.5H6.35733C6.80468 14.0548 7.32237 14.2868 7.78387 14.2868C8.24537 14.2868 8.76306 14.0548 9.21041 13.5ZM3.76316 5.76316C3.76316 4.70424 4.34518 3.90288 5.19559 3.34421C6.05588 2.77904 7.14335 2.5 8 2.5C9.77328 2.5 10.7872 3.08111 11.3764 3.7435C11.9733 4.41448 12.1868 5.22852 12.2368 5.78484V10.1053C12.2368 10.1741 12.2511 10.2422 12.2786 10.3052L13.2363 12.5H2.76371L3.72143 10.3052C3.74895 10.2422 3.76316 10.1741 3.76316 10.1053V10.103V10.1007V10.0984V10.096V10.0937V10.0913V10.0889V10.0864V10.084V10.0815V10.079V10.0764V10.0739V10.0713V10.0687V10.0661V10.0634V10.0608V10.0581V10.0553V10.0526V10.0498V10.047V10.0442V10.0414V10.0385V10.0357V10.0327V10.0298V10.0269V10.0239V10.0209V10.0179V10.0148V10.0117V10.0086V10.0055V10.0024V9.99921V9.99602V9.9928V9.98957V9.98631V9.98302V9.97971V9.97638V9.97303V9.96965V9.96624V9.96282V9.95937V9.95589V9.95239V9.94887V9.94533V9.94176V9.93817V9.93455V9.93091V9.92725V9.92356V9.91985V9.91611V9.91236V9.90857V9.90477V9.90094V9.89708V9.89321V9.88931V9.88538V9.88143V9.87746V9.87346V9.86944V9.8654V9.86133V9.85724V9.85313V9.84899V9.84482V9.84064V9.83643V9.83219V9.82793V9.82365V9.81935V9.81502V9.81066V9.80629V9.80188V9.79746V9.79301V9.78854V9.78404V9.77952V9.77497V9.77041V9.76581V9.7612V9.75656V9.75189V9.7472V9.74249V9.73776V9.733V9.72821V9.7234V9.71857V9.71372V9.70884V9.70393V9.69901V9.69405V9.68908V9.68408V9.67905V9.67401V9.66893V9.66384V9.65872V9.65357V9.64841V9.64321V9.638V9.63276V9.62749V9.6222V9.61689V9.61156V9.60619V9.60081V9.5954V9.58997V9.58451V9.57903V9.57352V9.568V9.56244V9.55686V9.55126V9.54564V9.53999V9.53431V9.52861V9.52289V9.51714V9.51137V9.50558V9.49976V9.49392V9.48805V9.48216V9.47624V9.4703V9.46434V9.45835V9.45233V9.4463V9.44024V9.43415V9.42804V9.42191V9.41575V9.40957V9.40336V9.39713V9.39087V9.38459V9.37829V9.37196V9.36561V9.35923V9.35283V9.34641V9.33996V9.33348V9.32698V9.32046V9.31391V9.30734V9.30075V9.29413V9.28748V9.28081V9.27412V9.2674V9.26066V9.25389V9.2471V9.24029V9.23345V9.22659V9.2197V9.21278V9.20585V9.19889V9.1919V9.18489V9.17785V9.1708V9.16371V9.1566V9.14947V9.14231V9.13513V9.12793V9.1207V9.11344V9.10616V9.09886V9.09153V9.08418V9.0768V9.0694V9.06197V9.05452V9.04704V9.03954V9.03202V9.02447V9.01689V9.0093V9.00167V8.99403V8.98635V8.97866V8.97093V8.96319V8.95542V8.94762V8.9398V8.93196V8.92409V8.9162V8.90828V8.90034V8.89237V8.88438V8.87636V8.86832V8.86025V8.85216V8.84405V8.83591V8.82774V8.81955V8.81134V8.8031V8.79484V8.78655V8.77824V8.7699V8.76154V8.75315V8.74474V8.7363V8.72784V8.71935V8.71084V8.70231V8.69375V8.68516V8.67655V8.66792V8.65926V8.65057V8.64186V8.63313V8.62437V8.61559V8.60678V8.59795V8.58909V8.58021V8.5713V8.56237V8.55341V8.54443V8.53542V8.52639V8.51733V8.50825V8.49915V8.49001V8.48086V8.47168V8.46247V8.45324V8.44398V8.4347V8.4254V8.41607V8.40671V8.39733V8.38793V8.3785V8.36904V8.35956V8.35006V8.34053V8.33097V8.32139V8.31179V8.30216V8.2925V8.28282V8.27312V8.26339V8.25363V8.24385V8.23405V8.22422V8.21436V8.20448V8.19458V8.18465V8.17469V8.16471V8.15471V8.14468V8.13462V8.12454V8.11444V8.10431V8.09415V8.08397V8.07376V8.06353V8.05328V8.04299V8.03269V8.02236V8.012V8.00162V7.99121V7.98078V7.97032V7.95984V7.94933V7.9388V7.92824V7.91766V7.90705V7.89642V7.88576V7.87507V7.86436V7.85363V7.84287V7.83209V7.82128V7.81044V7.79958V7.78869V7.77778V7.76685V7.75589V7.7449V7.73389V7.72285V7.71179V7.7007V7.68959V7.67845V7.66728V7.6561V7.64488V7.63364V7.62238V7.61109V7.59977V7.58843V7.57706V7.56567V7.55426V7.54281V7.53135V7.51985V7.50833V7.49679V7.48522V7.47363V7.46201V7.45036V7.43869V7.42699V7.41527V7.40353V7.39175V7.37996V7.36813V7.35628V7.34441V7.33251V7.32058V7.30863V7.29666V7.28466V7.27263V7.26058V7.2485V7.2364V7.22427V7.21211V7.19993V7.18773V7.1755V7.16324V7.15096V7.13865V7.12632V7.11396V7.10157V7.08916V7.07673V7.06427V7.05178V7.03927V7.02673V7.01417V7.00158V6.98897V6.97633V6.96366V6.95097V6.93825V6.92551V6.91274V6.89995V6.88713V6.87429V6.86141V6.84852V6.8356V6.82265V6.80968V6.79668V6.78365V6.7706V6.75753V6.74442V6.7313V6.71814V6.70497V6.69176V6.67853V6.66528V6.65199V6.63869V6.62535V6.61199V6.59861V6.5852V6.57176V6.5583V6.54481V6.5313V6.51776V6.5042V6.49061V6.47699V6.46335V6.44968V6.43599V6.42227V6.40852V6.39475V6.38095V6.36713V6.35328V6.3394V6.3255V6.31158V6.29762V6.28365V6.26964V6.25561V6.24156V6.22747V6.21337V6.19923V6.18507V6.17089V6.15668V6.14244V6.12818V6.11389V6.09957V6.08523V6.07087V6.05647V6.04205V6.02761V6.01314V5.99864V5.98412V5.96957V5.955V5.94039V5.92577V5.91112V5.89644V5.88173V5.867V5.85224V5.83746V5.82265V5.80782V5.79296V5.77807V5.76316Z" fill="#424242" />
</svg>
