<svg width="16" height="16" viewBox="0 0 16 16" fill="none" xmlns="http://www.w3.org/2000/svg">
<path d="M1.84848 10.9355V3.89032C1.84848 2.87861 1.84848 2.37276 2.03344 1.98634C2.19614 1.64643 2.45574 1.37008 2.77505 1.19689C3.13805 1 3.61324 1 4.56364 1H11.4364C12.3868 1 12.862 1 13.225 1.19689C13.5443 1.37008 13.8039 1.64643 13.9666 1.98634C14.1515 2.37276 14.1515 2.87861 14.1515 3.89032V4.62157M9.48485 12.2903H6.85572C6.37791 12.2903 5.93171 12.0361 5.66667 11.6129C5.40162 11.1897 4.95542 10.9355 4.47761 10.9355H1V11.2065C1 12.2182 1 12.724 1.18496 13.1104C1.34765 13.4503 1.60726 13.7267 1.92656 13.8999C2.28956 14.0968 2.76476 14.0968 3.71515 14.0968H9.49299M10.8424 15H13.6424C14.1176 15 14.3552 15 14.5367 14.9016C14.6964 14.815 14.8262 14.6768 14.9075 14.5068C15 14.3136 15 14.0607 15 13.5548V6.05806C15 5.55221 15 5.29928 14.9075 5.10607C14.8262 4.93612 14.6964 4.79794 14.5367 4.71135C14.3552 4.6129 14.1176 4.6129 13.6424 4.6129H10.8424C10.3672 4.6129 10.1296 4.6129 9.94813 4.71135C9.78848 4.79794 9.65868 4.93612 9.57733 5.10607C9.48485 5.29928 9.48485 5.55221 9.48485 6.05806V13.5548C9.48485 14.0607 9.48485 14.3136 9.57733 14.5068C9.65868 14.6768 9.78848 14.815 9.94813 14.9016C10.1296 15 10.3672 15 10.8424 15Z" stroke="#FDFDFD" strokeLinejoin="round"/>
</svg>
