<svg width="20" height="20" viewBox="0 0 16 16" fill="none" xmlns="http://www.w3.org/2000/svg">
<path d="M9.19048 15H6.80952M13 5.87269V5.45455C13 2.99437 10.7614 1 8 1C5.23858 1 3 2.99437 3 5.45455V5.87269C3 7.33424 3.81989 8.69908 5.18487 9.5098C5.60487 9.75926 5.85714 10.1792 5.85714 10.6289V11.9726C5.85714 12.2388 6.09935 12.4545 6.39812 12.4545H9.60188C9.90065 12.4545 10.1429 12.2388 10.1429 11.9726V10.6289C10.1429 10.1792 10.3951 9.75926 10.8151 9.5098C12.1801 8.69908 13 7.33424 13 5.87269Z" stroke="#A7A7A7" strokeLinecap="round" strokeLinejoin="round"/>
</svg>