<svg width="16" height="16" viewBox="0 0 16 16" fill="none" xmlns="http://www.w3.org/2000/svg">
<path d="M5 2.91763H2.6C1.71634 2.91763 1 3.59183 1 4.42351V6.68233M5 2.91763H10.2M5 2.91763V1.41174M5 2.91763V4.04704M10.2 2.91763H12.6C13.4837 2.91763 14.2 3.59183 14.2 4.42351V6.68233H1M10.2 2.91763V1.41174M10.2 2.91763V4.04704M1 6.68233V12.3294C1 13.1611 1.71634 13.8353 2.6 13.8353H6.6M11.475 14.5882H9.8V13.0118L12.9781 10.0206C13.4406 9.58526 14.1906 9.58526 14.6531 10.0206C15.1156 10.4559 15.1156 11.1617 14.6531 11.5971L11.475 14.5882Z" stroke="#FDFDFD" strokeLinecap="round" strokeLinejoin="round"/>
</svg>
