<svg width="16" height="16" viewBox="0 0 16 16" fill="none" xmlns="http://www.w3.org/2000/svg">
<path d="M5 2.6H2.6C1.71634 2.6 1 3.31634 1 4.2V6.6M5 2.6H10.2M5 2.6V1M5 2.6V3.8M10.2 2.6H12.6C13.4837 2.6 14.2 3.31634 14.2 4.2V6.6H1M10.2 2.6V1M10.2 2.6V3.8M1 6.6V12.6C1 13.4837 1.71634 14.2 2.6 14.2H6.6M11.475 15H9.8V13.325L12.9781 10.1469C13.4406 9.68437 14.1906 9.68437 14.6531 10.1469C15.1156 10.6094 15.1156 11.3594 14.6531 11.8219L11.475 15Z" stroke="#424242" strokeLinecap="round" strokeLinejoin="round"/>
</svg>
