<svg width="16" height="16" viewBox="0 0 16 16" fill="none" xmlns="http://www.w3.org/2000/svg">
<path d="M5.31034 2.69697H4.64828C3.72129 2.69697 3.2578 2.69697 2.90374 2.88193C2.5923 3.04462 2.33909 3.30423 2.1804 3.62353C2 3.98653 2 4.46173 2 5.41212V12.2848C2 13.2352 2 13.7104 2.1804 14.0734C2.33909 14.3927 2.5923 14.6523 2.90374 14.815C3.2578 15 3.72129 15 4.64828 15H11.3517C12.2787 15 12.7422 15 13.0963 14.815C13.4077 14.6523 13.6609 14.3927 13.8196 14.0734C14 13.7104 14 13.2352 14 12.2848V5.41212C14 4.46173 14 3.98653 13.8196 3.62353C13.6609 3.30423 13.4077 3.04462 13.0963 2.88193C12.7422 2.69697 12.2787 2.69697 11.3517 2.69697H10.6897M6.63448 4.39394H9.36552C9.82901 4.39394 10.0608 4.39394 10.2378 4.30146C10.3935 4.22011 10.5201 4.09031 10.5995 3.93066C10.6897 3.74916 10.6897 3.51156 10.6897 3.03636V2.35758C10.6897 1.88238 10.6897 1.64478 10.5995 1.46328C10.5201 1.30363 10.3935 1.17383 10.2378 1.09248C10.0608 1 9.82901 1 9.36552 1H6.63448C6.17099 1 5.93925 1 5.76221 1.09248C5.60649 1.17383 5.47989 1.30363 5.40055 1.46328C5.31034 1.64478 5.31034 1.88238 5.31034 2.35758V3.03636C5.31034 3.51156 5.31034 3.74916 5.40055 3.93066C5.47989 4.09031 5.60649 4.22011 5.76221 4.30146C5.93925 4.39394 6.17099 4.39394 6.63448 4.39394Z" stroke="#FDFDFD" strokeLinejoin="round"/>
</svg>
