<svg width="16" height="16" viewBox="0 0 16 16" fill="none" xmlns="http://www.w3.org/2000/svg">
<g clip-path="url(#clip0_625_53122)">
<path fill-rule="evenodd" clip-rule="evenodd" d="M8 1C4.3181 1 1 4.3181 1 8C1 11.6819 4.3181 15 8 15C11.6819 15 15 11.6819 15 8C15 4.3181 11.6819 1 8 1ZM0 8C0 3.58172 3.58172 0 8 0C12.4183 0 16 3.58172 16 8C16 12.4183 12.4183 16 8 16C3.58172 16 0 12.4183 0 8ZM8 4.88889C7.26362 4.88889 6.66667 5.48584 6.66667 6.22222C6.66667 6.59041 6.36819 6.88889 6 6.88889C5.63181 6.88889 5.33333 6.59041 5.33333 6.22222C5.33333 4.74946 6.52724 3.55556 8 3.55556C9.47276 3.55556 10.6667 4.74946 10.6667 6.22222C10.6667 7.46478 9.81682 8.50885 8.66667 8.80488V9.11111C8.66667 9.4793 8.36819 9.77778 8 9.77778C7.63181 9.77778 7.33333 9.4793 7.33333 9.11111V8.22222C7.33333 7.85403 7.63181 7.55556 8 7.55556C8.73638 7.55556 9.33333 6.9586 9.33333 6.22222C9.33333 5.48584 8.73638 4.88889 8 4.88889ZM8 10.6667C8.36819 10.6667 8.66667 10.9651 8.66667 11.3333V11.7778C8.66667 12.146 8.36819 12.4444 8 12.4444C7.63181 12.4444 7.33333 12.146 7.33333 11.7778V11.3333C7.33333 10.9651 7.63181 10.6667 8 10.6667Z" fill="#FDFDFD"/>
</g>
<defs>
<clipPath id="clip0_625_53122">
<rect width="16" height="16" fill="white"/>
</clipPath>
</defs>
</svg>
