<svg width="16" height="16" viewBox="0 0 16 16" fill="none" xmlns="http://www.w3.org/2000/svg">
<path d="M12.6667 10.3333V9.69705C12.6667 8.75984 11.9069 8 10.9697 8H5.0303C4.09309 8 3.33333 8.75976 3.33333 9.69697V10.3333M8 5.66667V8M5.8373 3.74528L7.58806 5.49603C7.81557 5.72354 8.18443 5.72354 8.41194 5.49603L10.1627 3.74528C10.3902 3.51777 10.3902 3.1489 10.1627 2.92139L8.41194 1.17063C8.18443 0.943123 7.81557 0.943123 7.58806 1.17063L5.8373 2.92139C5.60979 3.1489 5.60979 3.51777 5.8373 3.74528ZM1.17063 13.0786L2.92139 14.8294C3.1489 15.0569 3.51777 15.0569 3.74528 14.8294L5.49603 13.0786C5.72354 12.8511 5.72354 12.4822 5.49603 12.2547L3.74528 10.504C3.51777 10.2765 3.1489 10.2765 2.92139 10.504L1.17063 12.2547C0.943123 12.4822 0.943123 12.8511 1.17063 13.0786ZM10.504 13.0786L12.2547 14.8294C12.4822 15.0569 12.8511 15.0569 13.0786 14.8294L14.8294 13.0786C15.0569 12.8511 15.0569 12.4822 14.8294 12.2547L13.0786 10.504C12.8511 10.2765 12.4822 10.2765 12.2547 10.504L10.504 12.2547C10.2765 12.4822 10.2765 12.8511 10.504 13.0786Z" stroke="#424242" strokeLinecap="round" strokeLinejoin="round"/>
</svg>
