<svg width="16" height="16" viewBox="0 0 16 16" fill="none" xmlns="http://www.w3.org/2000/svg">
<path d="M9.90909 15V2.35758C9.90909 1.88238 9.90909 1.64478 9.81661 1.46328C9.73526 1.30363 9.60546 1.17383 9.44581 1.09248C9.26431 1 9.02671 1 8.55152 1H4.05455C3.57935 1 3.34175 1 3.16025 1.09248C3.0006 1.17383 2.8708 1.30363 2.78945 1.46328C2.69697 1.64478 2.69697 1.88238 2.69697 2.35758V15H9.90909ZM9.90909 15H13.303V7.44848C13.303 6.97329 13.303 6.73569 13.2106 6.55419C13.1292 6.39454 12.9994 6.26474 12.8398 6.18339C12.6582 6.09091 12.4207 6.09091 11.9455 6.09091H9.90909M15 15H1M5.24242 4.39394H7.36364M5.24242 8H7.36364M5.24242 11.6061H7.36364" stroke="#FDFDFD" strokeLinecap="round" strokeLinejoin="round"/>
</svg>
