<svg width="21" height="20" viewBox="0 0 21 20" fill="none" xmlns="http://www.w3.org/2000/svg">
<g clip-path="url(#clip0_2353_9301)">
<path d="M6.44798 17.5C6.44798 17.7915 6.61683 18.0565 6.88097 18.1797C7.14512 18.3029 7.45671 18.2619 7.68 18.0746L11.0826 15.2202C11.1377 15.1739 11.2106 15.1466 11.2884 15.1466H17.2393C18.8057 15.1466 20.1032 13.8996 20.1032 12.3276V4.56897C20.1032 2.99697 18.8057 1.75 17.2393 1.75H4.02704C2.46061 1.75 1.16309 2.99697 1.16309 4.56897V12.3276C1.16309 13.8996 2.46061 15.1466 4.02704 15.1466H6.141C6.32583 15.1466 6.44798 15.289 6.44798 15.431V17.5Z" stroke="#424242" stroke-width="1.5" strokeLinejoin="round"/>
</g>
<defs>
<clipPath id="clip0_2353_9301">
<rect width="19.9316" height="20" fill="white" transform="translate(0.666992)"/>
</clipPath>
</defs>
</svg>
