<svg width="16" height="16" viewBox="0 0 16 16" fill="none" xmlns="http://www.w3.org/2000/svg">
<g clip-path="url(#clip0_834_19030)">
<path d="M1 3.71515C1 2.76476 1 2.28956 1.18496 1.92656C1.34765 1.60726 1.60726 1.34765 1.92656 1.18496C2.28956 1 2.76476 1 3.71515 1H3.8C4.75039 1 5.22559 1 5.58859 1.18496C5.9079 1.34765 6.1675 1.60726 6.33019 1.92656C6.51515 2.28956 6.51515 2.76476 6.51515 3.71515V3.8C6.51515 4.75039 6.51515 5.22559 6.33019 5.58859C6.1675 5.9079 5.9079 6.1675 5.58859 6.33019C5.22559 6.51515 4.75039 6.51515 3.8 6.51515H3.71515C2.76476 6.51515 2.28956 6.51515 1.92656 6.33019C1.60726 6.1675 1.34765 5.9079 1.18496 5.58859C1 5.22559 1 4.75039 1 3.8V3.71515Z" stroke="#FDFDFD" strokeLinejoin="round"/>
<path d="M9.48485 3.71515C9.48485 2.76476 9.48485 2.28956 9.66981 1.92656C9.8325 1.60726 10.0921 1.34765 10.4114 1.18496C10.7744 1 11.2496 1 12.2 1H12.2848C13.2352 1 13.7104 1 14.0734 1.18496C14.3927 1.34765 14.6523 1.60726 14.815 1.92656C15 2.28956 15 2.76476 15 3.71515V3.8C15 4.75039 15 5.22559 14.815 5.58859C14.6523 5.9079 14.3927 6.1675 14.0734 6.33019C13.7104 6.51515 13.2352 6.51515 12.2848 6.51515H12.2C11.2496 6.51515 10.7744 6.51515 10.4114 6.33019C10.0921 6.1675 9.8325 5.9079 9.66981 5.58859C9.48485 5.22559 9.48485 4.75039 9.48485 3.8V3.71515Z" stroke="#FDFDFD" strokeLinejoin="round"/>
<path d="M1 12.2C1 11.2496 1 10.7744 1.18496 10.4114C1.34765 10.0921 1.60726 9.8325 1.92656 9.66981C2.28956 9.48485 2.76476 9.48485 3.71515 9.48485H3.8C4.75039 9.48485 5.22559 9.48485 5.58859 9.66981C5.9079 9.8325 6.1675 10.0921 6.33019 10.4114C6.51515 10.7744 6.51515 11.2496 6.51515 12.2V12.2848C6.51515 13.2352 6.51515 13.7104 6.33019 14.0734C6.1675 14.3927 5.9079 14.6523 5.58859 14.815C5.22559 15 4.75039 15 3.8 15H3.71515C2.76476 15 2.28956 15 1.92656 14.815C1.60726 14.6523 1.34765 14.3927 1.18496 14.0734C1 13.7104 1 13.2352 1 12.2848V12.2Z" stroke="#FDFDFD" strokeLinejoin="round"/>
<path d="M9.48485 12.2C9.48485 11.2496 9.48485 10.7744 9.66981 10.4114C9.8325 10.0921 10.0921 9.8325 10.4114 9.66981C10.7744 9.48485 11.2496 9.48485 12.2 9.48485H12.2848C13.2352 9.48485 13.7104 9.48485 14.0734 9.66981C14.3927 9.8325 14.6523 10.0921 14.815 10.4114C15 10.7744 15 11.2496 15 12.2V12.2848C15 13.2352 15 13.7104 14.815 14.0734C14.6523 14.3927 14.3927 14.6523 14.0734 14.815C13.7104 15 13.2352 15 12.2848 15H12.2C11.2496 15 10.7744 15 10.4114 14.815C10.0921 14.6523 9.8325 14.3927 9.66981 14.0734C9.48485 13.7104 9.48485 13.2352 9.48485 12.2848V12.2Z" stroke="#FDFDFD" strokeLinejoin="round"/>
</g>
<defs>
<clipPath id="clip0_834_19030">
<rect width="16" height="16" fill="white"/>
</clipPath>
</defs>
</svg>
