<svg width="16" height="16" viewBox="0 0 16 16" fill="none" xmlns="http://www.w3.org/2000/svg">
<g clip-path="url(#clip0_625_10788)">
<path d="M9.69697 2.27273C9.69697 1.56982 9.12715 1 8.42424 1H7.57576C6.87285 1 6.30303 1.56982 6.30303 2.27273V2.87895C6.30303 3.25691 5.84606 3.44619 5.5788 3.17894L5.15015 2.75028C4.65312 2.25325 3.84727 2.25325 3.35024 2.75028L2.75027 3.35025C2.25324 3.84728 2.25324 4.65313 2.75027 5.15016L3.17892 5.5788C3.44617 5.84606 3.25689 6.30303 2.87893 6.30303L2.27273 6.30303C1.56982 6.30303 1 6.87285 1 7.57576L1 8.42424C1 9.12715 1.56982 9.69697 2.27273 9.69697H2.87891C3.25687 9.69697 3.44615 10.1539 3.17889 10.4212L2.75027 10.8498C2.25324 11.3469 2.25324 12.1527 2.75027 12.6497L3.35024 13.2497C3.84727 13.7467 4.65311 13.7467 5.15014 13.2497L5.5788 12.821C5.84606 12.5538 6.30303 12.7431 6.30303 13.121V13.7273C6.30303 14.4302 6.87285 15 7.57576 15H8.42424C9.12715 15 9.69697 14.4302 9.69697 13.7273V13.1211C9.69697 12.7431 10.1539 12.5538 10.4212 12.8211L10.8499 13.2497C11.3469 13.7468 12.1527 13.7468 12.6498 13.2497L13.2497 12.6498C13.7468 12.1527 13.7468 11.3469 13.2497 10.8499L12.8211 10.4212C12.5538 10.1539 12.7431 9.69697 13.121 9.69697H13.7273C14.4302 9.69697 15 9.12715 15 8.42424V7.57576C15 6.87285 14.4302 6.30303 13.7273 6.30303L13.121 6.30303C12.7431 6.30303 12.5538 5.84606 12.821 5.5788L13.2497 5.15011C13.7468 4.65308 13.7468 3.84723 13.2497 3.3502L12.6498 2.75023C12.1527 2.2532 11.3469 2.2532 10.8499 2.75023L10.4212 3.17889C10.1539 3.44615 9.69697 3.25686 9.69697 2.8789V2.27273Z" stroke="#424242" strokeLinejoin="round"/>
<path d="M10.3333 8C10.3333 9.28866 9.28866 10.3333 8 10.3333C6.71134 10.3333 5.66667 9.28866 5.66667 8C5.66667 6.71134 6.71134 5.66667 8 5.66667C9.28866 5.66667 10.3333 6.71134 10.3333 8Z" stroke="#424242" strokeLinejoin="round"/>
</g>
<defs>
<clipPath id="clip0_625_10788">
<rect width="16" height="16" fill="white"/>
</clipPath>
</defs>
</svg>
