<svg width="20" height="20" viewBox="0 0 16 16" fill="none" xmlns="http://www.w3.org/2000/svg">
<path d="M10.5455 6.51515C12.0684 6.51515 13.303 5.28054 13.303 3.75758C13.303 2.23461 12.0684 1 10.5455 1M10.7576 9.48485H10.8636C13.1481 9.48485 15 11.3368 15 13.6212C15 14.3827 14.3827 15 13.6212 15H12.2424M8.21212 3.75758C8.21212 5.28054 6.97751 6.51515 5.45455 6.51515C3.93158 6.51515 2.69697 5.28054 2.69697 3.75758C2.69697 2.23461 3.93158 1 5.45455 1C6.97751 1 8.21212 2.23461 8.21212 3.75758ZM2.37879 15H8.5303C9.29179 15 9.90909 14.3827 9.90909 13.6212C9.90909 11.3368 8.05718 9.48485 5.77273 9.48485H5.13636C2.85191 9.48485 1 11.3368 1 13.6212C1 14.3827 1.6173 15 2.37879 15Z" stroke="#A7A7A7" strokeLinecap="round" strokeLinejoin="round"/>
</svg>