<svg width="506" height="151" viewBox="0 0 506 151" fill="none" xmlns="http://www.w3.org/2000/svg">
<g filter="url(#filter0_d_5553_210974)">
<rect x="24" y="20" width="450" height="103" rx="4" fill="#FDFDFD"/>
<path d="M47.044 34.152L46.444 35.112C45.244 34.692 44.368 33.852 43.912 32.796C43.432 33.96 42.52 34.908 41.236 35.352L40.6 34.38C42.28 33.792 43.264 32.364 43.264 30.888V30.708H40.972V29.712H46.768V30.708H44.512V30.888C44.512 32.232 45.436 33.588 47.044 34.152ZM43.684 36.864V38.808H48.376V36.864H43.684ZM42.472 39.792V35.88H49.588V39.792H42.472ZM48.352 29.076H49.588V35.388H48.352V32.724H46.432V31.716H48.352V29.076ZM51.6991 29.736H56.6191C56.6191 32.544 54.7591 34.488 51.6271 35.376L51.1231 34.392C53.6071 33.72 55.0711 32.412 55.2871 30.744H51.6991V29.736ZM54.1831 36.648V38.796H58.8151V36.648H54.1831ZM52.9711 39.792V35.664H60.0271V39.792H52.9711ZM58.7911 29.076H60.0271V35.22H58.7911V32.796H56.6431V31.776H58.7911V29.076ZM67.7901 34.044L67.1421 35.016C65.9781 34.596 65.1141 33.768 64.6581 32.748C64.1781 33.924 63.2901 34.86 62.0421 35.316L61.3821 34.332C63.0861 33.744 64.0101 32.268 64.0101 30.708V29.64H65.2581V30.804C65.2581 32.196 66.1821 33.516 67.7901 34.044ZM66.4581 38.952C67.9701 38.952 68.8461 38.58 68.8461 37.884C68.8461 37.212 67.9701 36.828 66.4581 36.828C64.9461 36.828 64.0701 37.212 64.0701 37.884C64.0701 38.58 64.9461 38.952 66.4581 38.952ZM66.4581 35.856C68.7021 35.856 70.0701 36.612 70.0701 37.884C70.0701 39.168 68.7021 39.924 66.4581 39.924C64.2261 39.924 62.8461 39.168 62.8461 37.884C62.8461 36.612 64.2261 35.856 66.4581 35.856ZM69.9501 31.764H71.4861V32.784H69.9501V35.592H68.7141V29.076H69.9501V31.764ZM73.5012 34.104V36.312C74.8932 36.3 75.8292 36.252 76.9332 36.06L77.0412 37.068C75.7932 37.296 74.7372 37.332 73.0452 37.332H72.3132V30.276H76.6332V31.272H73.5012V33.132H76.4412V34.104H73.5012ZM80.0052 29.088H81.1812V39.912H80.0052V34.38H78.7932V39.408H77.6412V29.292H78.7932V33.372H80.0052V29.088ZM90.5956 34.644V31.104H88.0996V34.644H90.5956ZM86.8636 34.644V31.104H85.2676V30.108H93.4156V31.104H91.8196V34.644H93.3916V35.652H85.3036V34.644H86.8636ZM84.4516 37.572H94.2916V38.592H84.4516V37.572ZM100.411 37.632H104.719V38.652H94.9026V37.632H99.1746V35.784H96.0906V32.292H102.331V30.84H96.0666V29.844H103.555V33.276H97.3026V34.788H103.795V35.784H100.411V37.632ZM108.666 30.084V31.98C108.666 33.732 109.326 35.568 110.778 36.48L110.082 37.44C109.098 36.84 108.45 35.784 108.078 34.572C107.694 35.904 106.986 37.044 105.942 37.68L105.186 36.744C106.722 35.832 107.466 33.888 107.466 32.04V30.084H108.666ZM111.21 32.88V29.292H112.374V39.42H111.21V33.888H109.614V32.88H111.21ZM113.418 29.088H114.594V39.924H113.418V29.088ZM125.177 34.38L124.637 35.4C122.873 35.04 121.349 33.912 120.641 32.424C119.933 33.912 118.409 35.04 116.645 35.4L116.117 34.38C118.253 33.984 119.993 32.316 119.993 30.6V29.784H121.301V30.6C121.301 32.328 123.041 33.996 125.177 34.38ZM115.781 37.512H125.597V38.532H115.781V37.512ZM134.135 31.812H136.055V29.088H137.291V35.544H136.055V32.82H134.135V31.812ZM134.759 34.224L134.147 35.196C132.947 34.776 132.083 33.924 131.627 32.88C131.147 34.068 130.235 35.028 128.951 35.484L128.315 34.5C129.995 33.9 130.967 32.46 130.967 30.972V30.816H128.675V29.82H134.471V30.816H132.215V30.96C132.215 32.316 133.139 33.66 134.759 34.224ZM133.691 38.976C135.215 38.976 136.103 38.592 136.103 37.884C136.103 37.176 135.215 36.792 133.691 36.792C132.143 36.792 131.267 37.176 131.267 37.884C131.267 38.592 132.143 38.976 133.691 38.976ZM133.691 35.832C135.947 35.832 137.339 36.6 137.339 37.884C137.339 39.18 135.947 39.936 133.691 39.936C131.423 39.936 130.031 39.18 130.031 37.884C130.031 36.6 131.423 35.832 133.691 35.832ZM142.246 29.844C143.938 29.844 145.198 30.912 145.198 32.448C145.198 33.984 143.938 35.052 142.246 35.052C140.554 35.052 139.306 33.984 139.306 32.448C139.306 30.912 140.554 29.844 142.246 29.844ZM142.246 30.9C141.25 30.9 140.518 31.5 140.518 32.448C140.518 33.384 141.25 33.996 142.246 33.996C143.254 33.996 143.986 33.384 143.986 32.448C143.986 31.5 143.254 30.9 142.246 30.9ZM146.422 29.076H147.67V39.936H146.422V29.076ZM138.958 37.644L138.802 36.624C140.746 36.624 143.446 36.612 145.774 36.264L145.858 37.164C143.47 37.62 140.878 37.644 138.958 37.644Z" fill="#424242"/>
<path d="M46.888 51.392L46.384 52.16C45.184 51.74 44.26 50.864 43.792 49.76C43.336 50.96 42.364 51.908 41.104 52.376L40.588 51.596C42.208 51.032 43.288 49.64 43.288 48.104V47.672H40.876V46.88H46.648V47.672H44.272V48.092C44.272 49.52 45.304 50.852 46.888 51.392ZM41.98 53.984V53.192H48.988V56.9H48.004V53.984H41.98ZM50.584 48.956V49.772H48.988V52.616H48.004V46.136H48.988V48.956H50.584ZM58.9591 55.952V54.56H54.0271V55.952H58.9591ZM58.9591 53.792V52.424H59.9431V56.744H53.0551V52.424H54.0271V53.792H58.9591ZM54.0151 50.792C55.0831 50.792 55.8511 50.096 55.8511 49.112C55.8511 48.128 55.0831 47.444 54.0151 47.444C52.9471 47.444 52.1791 48.128 52.1791 49.112C52.1791 50.096 52.9471 50.792 54.0151 50.792ZM58.9471 46.136H59.9431V51.908H58.9471V49.496H56.7631C56.5711 50.768 55.4911 51.608 54.0151 51.608C52.4071 51.608 51.2431 50.6 51.2431 49.112C51.2431 47.636 52.4071 46.628 54.0151 46.628C55.4671 46.628 56.5471 47.444 56.7511 48.692H58.9471V46.136ZM62.8701 48.236V53.42C64.3101 53.408 65.3301 53.348 66.5061 53.096L66.5901 53.912C65.3061 54.188 64.2141 54.236 62.6061 54.236H61.8981V47.432H65.9061V48.236H62.8701ZM69.7101 46.124H70.6581V56.888H69.7101V51.248H68.1861V56.348H67.2621V46.364H68.1861V50.444H69.7101V46.124ZM72.5892 47.288H77.6292C77.6292 50.396 76.2012 53.132 72.6252 54.884L72.0972 54.08C74.9892 52.7 76.4292 50.636 76.6332 48.08H72.5892V47.288ZM79.8012 46.124H80.7852V56.888H79.8012V46.124ZM84.6242 58.364C83.5202 56.564 82.8602 54.632 82.8602 52.268C82.8602 49.916 83.5202 47.972 84.6242 46.184L85.3082 46.496C84.2642 48.212 83.7722 50.228 83.7722 52.268C83.7722 54.308 84.2642 56.336 85.3082 58.04L84.6242 58.364ZM95.5909 51.452V52.256H91.1989V56.9H90.2029V52.256H85.8589V51.452H92.9989C93.3349 49.904 93.3349 48.764 93.3349 47.756V47.612H87.0709V46.82H94.2949V47.756C94.2949 48.764 94.2949 49.904 93.9949 51.452H95.5909ZM104.718 51.308L104.226 52.076C103.026 51.644 102.102 50.744 101.634 49.64C101.166 50.876 100.182 51.86 98.9216 52.316L98.4056 51.548C100.002 50.972 101.118 49.544 101.118 48.02V47.612H98.7176V46.808H104.466V47.612H102.102V48.008C102.102 49.412 103.158 50.756 104.718 51.308ZM101.202 53.732V55.952H106.278V53.732H101.202ZM100.242 56.744V52.952H107.238V56.744H100.242ZM106.242 46.124H107.238V52.424H106.242V49.64H104.118V48.824H106.242V46.124ZM109.469 46.808H114.329C114.329 49.532 112.421 51.464 109.337 52.34L108.929 51.572C111.485 50.84 113.081 49.436 113.285 47.612H109.469V46.808ZM111.689 53.504V55.94H116.705V53.504H111.689ZM110.717 56.732V52.724H117.677V56.732H110.717ZM116.681 46.124H117.677V52.268H116.681V49.7H114.341V48.896H116.681V46.124ZM120.604 48.236V53.42C122.044 53.408 123.064 53.348 124.24 53.096L124.324 53.912C123.04 54.188 121.948 54.236 120.34 54.236H119.632V47.432H123.64V48.236H120.604ZM127.444 46.124H128.392V56.888H127.444V51.248H125.92V56.348H124.996V46.364H125.92V50.444H127.444V46.124ZM130.323 47.288H135.363C135.363 50.396 133.935 53.132 130.359 54.884L129.831 54.08C132.723 52.7 134.163 50.636 134.367 48.08H130.323V47.288ZM137.535 46.124H138.519V56.888H137.535V46.124ZM140.678 58.364L140.006 58.04C141.038 56.336 141.542 54.308 141.542 52.268C141.542 50.228 141.038 48.212 140.006 46.496L140.678 46.184C141.794 47.972 142.454 49.916 142.454 52.268C142.454 54.632 141.794 56.564 140.678 58.364ZM146.696 51.32C146.264 51.32 145.904 50.972 145.904 50.492C145.904 49.988 146.264 49.64 146.696 49.64C147.128 49.64 147.488 49.988 147.488 50.492C147.488 50.972 147.128 51.32 146.696 51.32ZM146.696 56.156C146.264 56.156 145.904 55.82 145.904 55.328C145.904 54.824 146.264 54.476 146.696 54.476C147.128 54.476 147.488 54.824 147.488 55.328C147.488 55.82 147.128 56.156 146.696 56.156ZM156.836 51.308L156.344 52.076C155.144 51.644 154.22 50.744 153.752 49.64C153.284 50.876 152.3 51.86 151.04 52.316L150.524 51.548C152.12 50.972 153.236 49.544 153.236 48.02V47.612H150.836V46.808H156.584V47.612H154.22V48.008C154.22 49.412 155.276 50.756 156.836 51.308ZM153.32 53.732V55.952H158.396V53.732H153.32ZM152.36 56.744V52.952H159.356V56.744H152.36ZM158.36 46.124H159.356V52.424H158.36V49.64H156.236V48.824H158.36V46.124ZM161.587 46.808H166.447C166.447 49.532 164.539 51.464 161.455 52.34L161.047 51.572C163.603 50.84 165.199 49.436 165.403 47.612H161.587V46.808ZM163.807 53.504V55.94H168.823V53.504H163.807ZM162.835 56.732V52.724H169.795V56.732H162.835ZM168.799 46.124H169.795V52.268H168.799V49.7H166.459V48.896H168.799V46.124ZM177.594 50.444L177.702 51.236C176.226 51.536 174.954 51.62 172.698 51.62H171.858V46.844H176.598V47.636H172.842V50.804C174.966 50.804 176.19 50.72 177.594 50.444ZM173.922 53.576V55.94H178.746V53.576H173.922ZM172.962 56.732V52.796H179.718V56.732H172.962ZM181.314 48.752V49.568H179.718V52.22H178.734V46.112H179.718V48.752H181.314ZM188.045 50.492L188.153 51.296C186.677 51.596 185.393 51.668 183.125 51.668H182.285V46.952H187.037V47.744H183.257V50.864C185.393 50.864 186.629 50.792 188.045 50.492ZM186.737 56.084C188.321 56.084 189.305 55.604 189.305 54.812C189.305 54.02 188.321 53.54 186.737 53.54C185.141 53.54 184.157 54.02 184.157 54.812C184.157 55.604 185.141 56.084 186.737 56.084ZM186.737 52.748C188.909 52.748 190.277 53.516 190.277 54.812C190.277 56.108 188.909 56.876 186.737 56.876C184.553 56.876 183.185 56.108 183.185 54.812C183.185 53.516 184.553 52.748 186.737 52.748ZM190.169 48.92H191.753V49.736H190.169V52.532H189.173V46.124H190.169V48.92ZM195.868 48.044V49.412C195.868 51.128 197.092 53.036 198.652 53.768L198.088 54.56C196.888 53.96 195.88 52.7 195.388 51.26C194.896 52.832 193.852 54.2 192.64 54.824L192.064 54.044C193.6 53.276 194.896 51.236 194.896 49.412V48.044H192.436V47.228H198.256V48.044H195.868ZM202.3 50.468V51.296H200.524V56.888H199.54V46.136H200.524V50.468H202.3ZM203.259 47.276H208.179C208.179 50.336 206.775 53.108 203.295 54.848L202.755 54.08C205.503 52.7 206.979 50.636 207.207 48.092H203.259V47.276ZM212.691 50.492V51.308H210.963V56.888H209.979V46.124H210.963V50.492H212.691ZM221.458 51.392L220.954 52.16C219.754 51.74 218.83 50.864 218.362 49.76C217.906 50.96 216.934 51.908 215.674 52.376L215.158 51.596C216.778 51.032 217.858 49.64 217.858 48.104V47.672H215.446V46.88H221.218V47.672H218.842V48.092C218.842 49.52 219.874 50.852 221.458 51.392ZM216.55 53.984V53.192H223.558V56.9H222.574V53.984H216.55ZM225.154 48.956V49.772H223.558V52.616H222.574V46.136H223.558V48.956H225.154ZM233.529 55.952V54.56H228.597V55.952H233.529ZM233.529 53.792V52.424H234.513V56.744H227.625V52.424H228.597V53.792H233.529ZM228.585 50.792C229.653 50.792 230.421 50.096 230.421 49.112C230.421 48.128 229.653 47.444 228.585 47.444C227.517 47.444 226.749 48.128 226.749 49.112C226.749 50.096 227.517 50.792 228.585 50.792ZM233.517 46.136H234.513V51.908H233.517V49.496H231.333C231.141 50.768 230.061 51.608 228.585 51.608C226.977 51.608 225.813 50.6 225.813 49.112C225.813 47.636 226.977 46.628 228.585 46.628C230.037 46.628 231.117 47.444 231.321 48.692H233.517V46.136ZM240.944 47.048C239.18 47.048 238.172 47.456 238.172 48.176C238.172 48.896 239.18 49.304 240.944 49.304C242.708 49.304 243.716 48.896 243.716 48.176C243.716 47.456 242.708 47.048 240.944 47.048ZM240.944 50.036C238.58 50.036 237.164 49.388 237.164 48.176C237.164 46.964 238.58 46.304 240.944 46.304C243.308 46.304 244.724 46.964 244.724 48.176C244.724 49.388 243.308 50.036 240.944 50.036ZM238.244 54.908V56H244.892V56.768H237.284V54.188H243.596V53.228H237.248V52.484H244.568V54.908H238.244ZM236.072 50.768H245.816V51.56H236.072V50.768ZM257.438 46.136V54.008H256.454V46.136H257.438ZM255.182 51.692L254.702 52.472C253.466 52.04 252.482 51.152 251.99 50.024C251.534 51.248 250.538 52.22 249.266 52.676L248.75 51.908C250.382 51.344 251.474 49.94 251.474 48.404V47.816H249.014V47.024H254.918V47.816H252.482V48.404C252.482 49.856 253.598 51.164 255.182 51.692ZM251.498 55.844H257.762V56.648H250.514V53.264H251.498V55.844ZM265.813 49.856V52.544H264.877V46.328H265.813V49.052H267.181V46.124H268.129V52.94H267.181V49.856H265.813ZM264.445 47.408L264.457 48.188H258.985V47.408H261.241V46.208H262.213V47.408H264.445ZM260.317 50.588C260.317 51.26 260.881 51.704 261.733 51.704C262.573 51.704 263.149 51.26 263.149 50.588C263.149 49.928 262.573 49.484 261.733 49.484C260.881 49.484 260.317 49.928 260.317 50.588ZM264.025 50.588C264.025 51.716 263.089 52.436 261.733 52.436C260.377 52.436 259.429 51.716 259.429 50.588C259.429 49.484 260.377 48.752 261.733 48.752C263.089 48.752 264.025 49.484 264.025 50.588ZM264.589 56.12C266.221 56.12 267.205 55.712 267.205 55.004C267.205 54.284 266.221 53.876 264.589 53.876C262.945 53.876 261.961 54.284 261.961 55.004C261.961 55.712 262.945 56.12 264.589 56.12ZM264.589 53.12C266.833 53.12 268.189 53.792 268.189 55.004C268.189 56.204 266.833 56.876 264.589 56.876C262.345 56.876 260.989 56.204 260.989 55.004C260.989 53.792 262.345 53.12 264.589 53.12ZM270.84 48.236V53.42C272.28 53.408 273.3 53.348 274.476 53.096L274.56 53.912C273.276 54.188 272.184 54.236 270.576 54.236H269.868V47.432H273.876V48.236H270.84ZM277.68 46.124H278.628V56.888H277.68V51.248H276.156V56.348H275.232V46.364H276.156V50.444H277.68V46.124ZM280.56 47.288H285.6C285.6 50.396 284.172 53.132 280.596 54.884L280.068 54.08C282.96 52.7 284.4 50.636 284.604 48.08H280.56V47.288ZM287.772 46.124H288.756V56.888H287.772V46.124ZM293.346 50.516L292.998 49.736C294.882 49.52 296.598 48.596 296.682 47.408H293.346V46.616H301.302V47.408H297.954C298.038 48.596 299.754 49.52 301.638 49.736L301.29 50.516C299.526 50.3 297.918 49.508 297.318 48.32C296.73 49.508 295.11 50.3 293.346 50.516ZM299.994 54.98C299.994 54.26 298.986 53.852 297.306 53.852C295.614 53.852 294.618 54.26 294.618 54.98C294.618 55.7 295.614 56.12 297.306 56.12C298.986 56.12 299.994 55.7 299.994 54.98ZM302.178 51.956H297.81V53.108C299.814 53.204 300.99 53.864 300.99 54.98C300.99 56.204 299.61 56.876 297.318 56.876C295.014 56.876 293.622 56.204 293.622 54.98C293.622 53.864 294.81 53.204 296.814 53.108V51.956H292.446V51.164H302.178V51.956ZM311.717 46.136V53.996H310.733V46.136H311.717ZM304.097 49.52C304.097 50.588 304.889 51.332 305.933 51.332C307.001 51.332 307.793 50.588 307.793 49.52C307.793 48.476 307.001 47.732 305.933 47.732C304.889 47.732 304.097 48.476 304.097 49.52ZM308.753 49.52C308.753 51.08 307.541 52.184 305.933 52.184C304.337 52.184 303.137 51.08 303.137 49.52C303.137 47.972 304.337 46.88 305.933 46.88C307.541 46.88 308.753 47.972 308.753 49.52ZM305.777 55.844H312.041V56.648H304.793V53.192H305.777V55.844ZM321.624 51.188L321.108 51.956C319.944 51.524 319.02 50.636 318.54 49.532C318.096 50.792 317.136 51.776 315.876 52.256L315.36 51.476C316.992 50.888 318.036 49.424 318.036 47.78V46.676H319.02V47.864C319.02 49.316 320.076 50.66 321.624 51.188ZM320.34 56.108C321.924 56.108 322.896 55.664 322.896 54.92C322.896 54.164 321.924 53.72 320.34 53.72C318.744 53.72 317.772 54.164 317.772 54.92C317.772 55.664 318.744 56.108 320.34 56.108ZM320.34 52.952C322.524 52.952 323.88 53.66 323.88 54.92C323.88 56.168 322.524 56.876 320.34 56.876C318.144 56.876 316.788 56.168 316.788 54.92C316.788 53.66 318.144 52.952 320.34 52.952ZM323.76 48.908H325.356V49.724H323.76V52.652H322.776V46.136H323.76V48.908ZM327.215 50.984V53.408C328.787 53.408 329.747 53.36 330.899 53.132L330.995 53.948C329.747 54.188 328.715 54.224 326.975 54.224H326.267V47.36H330.515V48.164H327.215V50.204H330.347V50.984H327.215ZM334.055 46.124H334.991V56.888H334.055V51.248H332.627V56.36H331.691V46.364H332.627V50.444H334.055V46.124ZM46.888 65.392L46.384 66.16C45.184 65.74 44.26 64.864 43.792 63.76C43.336 64.96 42.364 65.908 41.104 66.376L40.588 65.596C42.208 65.032 43.288 63.64 43.288 62.104V61.672H40.876V60.88H46.648V61.672H44.272V62.092C44.272 63.52 45.304 64.852 46.888 65.392ZM41.98 67.984V67.192H48.988V70.9H48.004V67.984H41.98ZM50.584 62.956V63.772H48.988V66.616H48.004V60.136H48.988V62.956H50.584ZM58.9591 69.952V68.56H54.0271V69.952H58.9591ZM58.9591 67.792V66.424H59.9431V70.744H53.0551V66.424H54.0271V67.792H58.9591ZM54.0151 64.792C55.0831 64.792 55.8511 64.096 55.8511 63.112C55.8511 62.128 55.0831 61.444 54.0151 61.444C52.9471 61.444 52.1791 62.128 52.1791 63.112C52.1791 64.096 52.9471 64.792 54.0151 64.792ZM58.9471 60.136H59.9431V65.908H58.9471V63.496H56.7631C56.5711 64.768 55.4911 65.608 54.0151 65.608C52.4071 65.608 51.2431 64.6 51.2431 63.112C51.2431 61.636 52.4071 60.628 54.0151 60.628C55.4671 60.628 56.5471 61.444 56.7511 62.692H58.9471V60.136ZM70.3461 60.136V68.008H69.3621V60.136H70.3461ZM68.0901 65.692L67.6101 66.472C66.3741 66.04 65.3901 65.152 64.8981 64.024C64.4421 65.248 63.4461 66.22 62.1741 66.676L61.6581 65.908C63.2901 65.344 64.3821 63.94 64.3821 62.404V61.816H61.9221V61.024H67.8261V61.816H65.3901V62.404C65.3901 63.856 66.5061 65.164 68.0901 65.692ZM64.4061 69.844H70.6701V70.648H63.4221V67.264H64.4061V69.844ZM78.7212 63.856V66.544H77.7852V60.328H78.7212V63.052H80.0892V60.124H81.0372V66.94H80.0892V63.856H78.7212ZM77.3532 61.408L77.3652 62.188H71.8932V61.408H74.1492V60.208H75.1212V61.408H77.3532ZM73.2252 64.588C73.2252 65.26 73.7892 65.704 74.6412 65.704C75.4812 65.704 76.0572 65.26 76.0572 64.588C76.0572 63.928 75.4812 63.484 74.6412 63.484C73.7892 63.484 73.2252 63.928 73.2252 64.588ZM76.9332 64.588C76.9332 65.716 75.9972 66.436 74.6412 66.436C73.2852 66.436 72.3372 65.716 72.3372 64.588C72.3372 63.484 73.2852 62.752 74.6412 62.752C75.9972 62.752 76.9332 63.484 76.9332 64.588ZM77.4972 70.12C79.1292 70.12 80.1132 69.712 80.1132 69.004C80.1132 68.284 79.1292 67.876 77.4972 67.876C75.8532 67.876 74.8692 68.284 74.8692 69.004C74.8692 69.712 75.8532 70.12 77.4972 70.12ZM77.4972 67.12C79.7412 67.12 81.0972 67.792 81.0972 69.004C81.0972 70.204 79.7412 70.876 77.4972 70.876C75.2532 70.876 73.8972 70.204 73.8972 69.004C73.8972 67.792 75.2532 67.12 77.4972 67.12ZM84.6242 72.364C83.5202 70.564 82.8602 68.632 82.8602 66.268C82.8602 63.916 83.5202 61.972 84.6242 60.184L85.3082 60.496C84.2642 62.212 83.7722 64.228 83.7722 66.268C83.7722 68.308 84.2642 70.336 85.3082 72.04L84.6242 72.364ZM95.5909 65.452V66.256H91.1989V70.9H90.2029V66.256H85.8589V65.452H92.9989C93.3349 63.904 93.3349 62.764 93.3349 61.756V61.612H87.0709V60.82H94.2949V61.756C94.2949 62.764 94.2949 63.904 93.9949 65.452H95.5909ZM104.718 65.308L104.226 66.076C103.026 65.644 102.102 64.744 101.634 63.64C101.166 64.876 100.182 65.86 98.9216 66.316L98.4056 65.548C100.002 64.972 101.118 63.544 101.118 62.02V61.612H98.7176V60.808H104.466V61.612H102.102V62.008C102.102 63.412 103.158 64.756 104.718 65.308ZM101.202 67.732V69.952H106.278V67.732H101.202ZM100.242 70.744V66.952H107.238V70.744H100.242ZM106.242 60.124H107.238V66.424H106.242V63.64H104.118V62.824H106.242V60.124ZM109.469 60.808H114.329C114.329 63.532 112.421 65.464 109.337 66.34L108.929 65.572C111.485 64.84 113.081 63.436 113.285 61.612H109.469V60.808ZM111.689 67.504V69.94H116.705V67.504H111.689ZM110.717 70.732V66.724H117.677V70.732H110.717ZM116.681 60.124H117.677V66.268H116.681V63.7H114.341V62.896H116.681V60.124ZM128.08 60.136V68.008H127.096V60.136H128.08ZM125.824 65.692L125.344 66.472C124.108 66.04 123.124 65.152 122.632 64.024C122.176 65.248 121.18 66.22 119.908 66.676L119.392 65.908C121.024 65.344 122.116 63.94 122.116 62.404V61.816H119.656V61.024H125.56V61.816H123.124V62.404C123.124 63.856 124.24 65.164 125.824 65.692ZM122.14 69.844H128.404V70.648H121.156V67.264H122.14V69.844ZM136.455 63.856V66.544H135.519V60.328H136.455V63.052H137.823V60.124H138.771V66.94H137.823V63.856H136.455ZM135.087 61.408L135.099 62.188H129.627V61.408H131.883V60.208H132.855V61.408H135.087ZM130.959 64.588C130.959 65.26 131.523 65.704 132.375 65.704C133.215 65.704 133.791 65.26 133.791 64.588C133.791 63.928 133.215 63.484 132.375 63.484C131.523 63.484 130.959 63.928 130.959 64.588ZM134.667 64.588C134.667 65.716 133.731 66.436 132.375 66.436C131.019 66.436 130.071 65.716 130.071 64.588C130.071 63.484 131.019 62.752 132.375 62.752C133.731 62.752 134.667 63.484 134.667 64.588ZM135.231 70.12C136.863 70.12 137.847 69.712 137.847 69.004C137.847 68.284 136.863 67.876 135.231 67.876C133.587 67.876 132.603 68.284 132.603 69.004C132.603 69.712 133.587 70.12 135.231 70.12ZM135.231 67.12C137.475 67.12 138.831 67.792 138.831 69.004C138.831 70.204 137.475 70.876 135.231 70.876C132.987 70.876 131.631 70.204 131.631 69.004C131.631 67.792 132.987 67.12 135.231 67.12ZM140.678 72.364L140.006 72.04C141.038 70.336 141.542 68.308 141.542 66.268C141.542 64.228 141.038 62.212 140.006 60.496L140.678 60.184C141.794 61.972 142.454 63.916 142.454 66.268C142.454 68.632 141.794 70.564 140.678 72.364ZM146.696 65.32C146.264 65.32 145.904 64.972 145.904 64.492C145.904 63.988 146.264 63.64 146.696 63.64C147.128 63.64 147.488 63.988 147.488 64.492C147.488 64.972 147.128 65.32 146.696 65.32ZM146.696 70.156C146.264 70.156 145.904 69.82 145.904 69.328C145.904 68.824 146.264 68.476 146.696 68.476C147.128 68.476 147.488 68.824 147.488 69.328C147.488 69.82 147.128 70.156 146.696 70.156ZM156.836 65.308L156.344 66.076C155.144 65.644 154.22 64.744 153.752 63.64C153.284 64.876 152.3 65.86 151.04 66.316L150.524 65.548C152.12 64.972 153.236 63.544 153.236 62.02V61.612H150.836V60.808H156.584V61.612H154.22V62.008C154.22 63.412 155.276 64.756 156.836 65.308ZM153.32 67.732V69.952H158.396V67.732H153.32ZM152.36 70.744V66.952H159.356V70.744H152.36ZM158.36 60.124H159.356V66.424H158.36V63.64H156.236V62.824H158.36V60.124ZM161.587 60.808H166.447C166.447 63.532 164.539 65.464 161.455 66.34L161.047 65.572C163.603 64.84 165.199 63.436 165.403 61.612H161.587V60.808ZM163.807 67.504V69.94H168.823V67.504H163.807ZM162.835 70.732V66.724H169.795V70.732H162.835ZM168.799 60.124H169.795V66.268H168.799V63.7H166.459V62.896H168.799V60.124ZM177.594 64.444L177.702 65.236C176.226 65.536 174.954 65.62 172.698 65.62H171.858V60.844H176.598V61.636H172.842V64.804C174.966 64.804 176.19 64.72 177.594 64.444ZM173.922 67.576V69.94H178.746V67.576H173.922ZM172.962 70.732V66.796H179.718V70.732H172.962ZM181.314 62.752V63.568H179.718V66.22H178.734V60.112H179.718V62.752H181.314ZM188.045 64.492L188.153 65.296C186.677 65.596 185.393 65.668 183.125 65.668H182.285V60.952H187.037V61.744H183.257V64.864C185.393 64.864 186.629 64.792 188.045 64.492ZM186.737 70.084C188.321 70.084 189.305 69.604 189.305 68.812C189.305 68.02 188.321 67.54 186.737 67.54C185.141 67.54 184.157 68.02 184.157 68.812C184.157 69.604 185.141 70.084 186.737 70.084ZM186.737 66.748C188.909 66.748 190.277 67.516 190.277 68.812C190.277 70.108 188.909 70.876 186.737 70.876C184.553 70.876 183.185 70.108 183.185 68.812C183.185 67.516 184.553 66.748 186.737 66.748ZM190.169 62.92H191.753V63.736H190.169V66.532H189.173V60.124H190.169V62.92ZM195.868 62.044V63.412C195.868 65.128 197.092 67.036 198.652 67.768L198.088 68.56C196.888 67.96 195.88 66.7 195.388 65.26C194.896 66.832 193.852 68.2 192.64 68.824L192.064 68.044C193.6 67.276 194.896 65.236 194.896 63.412V62.044H192.436V61.228H198.256V62.044H195.868ZM202.3 64.468V65.296H200.524V70.888H199.54V60.136H200.524V64.468H202.3ZM203.259 61.276H208.179C208.179 64.336 206.775 67.108 203.295 68.848L202.755 68.08C205.503 66.7 206.979 64.636 207.207 62.092H203.259V61.276ZM212.691 64.492V65.308H210.963V70.888H209.979V60.124H210.963V64.492H212.691ZM221.458 65.392L220.954 66.16C219.754 65.74 218.83 64.864 218.362 63.76C217.906 64.96 216.934 65.908 215.674 66.376L215.158 65.596C216.778 65.032 217.858 63.64 217.858 62.104V61.672H215.446V60.88H221.218V61.672H218.842V62.092C218.842 63.52 219.874 64.852 221.458 65.392ZM216.55 67.984V67.192H223.558V70.9H222.574V67.984H216.55ZM225.154 62.956V63.772H223.558V66.616H222.574V60.136H223.558V62.956H225.154ZM233.529 69.952V68.56H228.597V69.952H233.529ZM233.529 67.792V66.424H234.513V70.744H227.625V66.424H228.597V67.792H233.529ZM228.585 64.792C229.653 64.792 230.421 64.096 230.421 63.112C230.421 62.128 229.653 61.444 228.585 61.444C227.517 61.444 226.749 62.128 226.749 63.112C226.749 64.096 227.517 64.792 228.585 64.792ZM233.517 60.136H234.513V65.908H233.517V63.496H231.333C231.141 64.768 230.061 65.608 228.585 65.608C226.977 65.608 225.813 64.6 225.813 63.112C225.813 61.636 226.977 60.628 228.585 60.628C230.037 60.628 231.117 61.444 231.321 62.692H233.517V60.136ZM240.944 61.048C239.18 61.048 238.172 61.456 238.172 62.176C238.172 62.896 239.18 63.304 240.944 63.304C242.708 63.304 243.716 62.896 243.716 62.176C243.716 61.456 242.708 61.048 240.944 61.048ZM240.944 64.036C238.58 64.036 237.164 63.388 237.164 62.176C237.164 60.964 238.58 60.304 240.944 60.304C243.308 60.304 244.724 60.964 244.724 62.176C244.724 63.388 243.308 64.036 240.944 64.036ZM238.244 68.908V70H244.892V70.768H237.284V68.188H243.596V67.228H237.248V66.484H244.568V68.908H238.244ZM236.072 64.768H245.816V65.56H236.072V64.768ZM257.438 60.136V68.008H256.454V60.136H257.438ZM255.182 65.692L254.702 66.472C253.466 66.04 252.482 65.152 251.99 64.024C251.534 65.248 250.538 66.22 249.266 66.676L248.75 65.908C250.382 65.344 251.474 63.94 251.474 62.404V61.816H249.014V61.024H254.918V61.816H252.482V62.404C252.482 63.856 253.598 65.164 255.182 65.692ZM251.498 69.844H257.762V70.648H250.514V67.264H251.498V69.844ZM265.813 63.856V66.544H264.877V60.328H265.813V63.052H267.181V60.124H268.129V66.94H267.181V63.856H265.813ZM264.445 61.408L264.457 62.188H258.985V61.408H261.241V60.208H262.213V61.408H264.445ZM260.317 64.588C260.317 65.26 260.881 65.704 261.733 65.704C262.573 65.704 263.149 65.26 263.149 64.588C263.149 63.928 262.573 63.484 261.733 63.484C260.881 63.484 260.317 63.928 260.317 64.588ZM264.025 64.588C264.025 65.716 263.089 66.436 261.733 66.436C260.377 66.436 259.429 65.716 259.429 64.588C259.429 63.484 260.377 62.752 261.733 62.752C263.089 62.752 264.025 63.484 264.025 64.588ZM264.589 70.12C266.221 70.12 267.205 69.712 267.205 69.004C267.205 68.284 266.221 67.876 264.589 67.876C262.945 67.876 261.961 68.284 261.961 69.004C261.961 69.712 262.945 70.12 264.589 70.12ZM264.589 67.12C266.833 67.12 268.189 67.792 268.189 69.004C268.189 70.204 266.833 70.876 264.589 70.876C262.345 70.876 260.989 70.204 260.989 69.004C260.989 67.792 262.345 67.12 264.589 67.12ZM272.468 64.516L272.12 63.736C274.004 63.52 275.72 62.596 275.804 61.408H272.468V60.616H280.424V61.408H277.076C277.16 62.596 278.876 63.52 280.76 63.736L280.412 64.516C278.648 64.3 277.04 63.508 276.44 62.32C275.852 63.508 274.232 64.3 272.468 64.516ZM279.116 68.98C279.116 68.26 278.108 67.852 276.428 67.852C274.736 67.852 273.74 68.26 273.74 68.98C273.74 69.7 274.736 70.12 276.428 70.12C278.108 70.12 279.116 69.7 279.116 68.98ZM281.3 65.956H276.932V67.108C278.936 67.204 280.112 67.864 280.112 68.98C280.112 70.204 278.732 70.876 276.44 70.876C274.136 70.876 272.744 70.204 272.744 68.98C272.744 67.864 273.932 67.204 275.936 67.108V65.956H271.568V65.164H281.3V65.956ZM290.839 60.136V67.996H289.855V60.136H290.839ZM283.219 63.52C283.219 64.588 284.011 65.332 285.055 65.332C286.123 65.332 286.915 64.588 286.915 63.52C286.915 62.476 286.123 61.732 285.055 61.732C284.011 61.732 283.219 62.476 283.219 63.52ZM287.875 63.52C287.875 65.08 286.663 66.184 285.055 66.184C283.459 66.184 282.259 65.08 282.259 63.52C282.259 61.972 283.459 60.88 285.055 60.88C286.663 60.88 287.875 61.972 287.875 63.52ZM284.899 69.844H291.163V70.648H283.915V67.192H284.899V69.844ZM300.746 65.188L300.23 65.956C299.066 65.524 298.142 64.636 297.662 63.532C297.218 64.792 296.258 65.776 294.998 66.256L294.482 65.476C296.114 64.888 297.158 63.424 297.158 61.78V60.676H298.142V61.864C298.142 63.316 299.198 64.66 300.746 65.188ZM299.462 70.108C301.046 70.108 302.018 69.664 302.018 68.92C302.018 68.164 301.046 67.72 299.462 67.72C297.866 67.72 296.894 68.164 296.894 68.92C296.894 69.664 297.866 70.108 299.462 70.108ZM299.462 66.952C301.646 66.952 303.002 67.66 303.002 68.92C303.002 70.168 301.646 70.876 299.462 70.876C297.266 70.876 295.91 70.168 295.91 68.92C295.91 67.66 297.266 66.952 299.462 66.952ZM302.882 62.908H304.478V63.724H302.882V66.652H301.898V60.136H302.882V62.908ZM306.337 64.984V67.408C307.909 67.408 308.869 67.36 310.021 67.132L310.117 67.948C308.869 68.188 307.837 68.224 306.097 68.224H305.389V61.36H309.637V62.164H306.337V64.204H309.469V64.984H306.337ZM313.177 60.124H314.113V70.888H313.177V65.248H311.749V70.36H310.813V60.364H311.749V64.444H313.177V60.124ZM49.804 78.64L49.432 79.408C47.776 79.144 46.192 78.28 45.508 77.056C44.836 78.292 43.24 79.144 41.572 79.408L41.212 78.64C43.132 78.364 45.004 77.188 45.004 75.784V75.304H46.012V75.784C46.012 77.152 47.896 78.364 49.804 78.64ZM45.508 85.12C47.188 85.12 48.184 84.712 48.184 83.968C48.184 83.236 47.188 82.816 45.508 82.816C43.804 82.816 42.808 83.236 42.808 83.968C42.808 84.712 43.804 85.12 45.508 85.12ZM45.508 82.06C47.8 82.06 49.18 82.744 49.18 83.968C49.18 85.204 47.8 85.888 45.508 85.888C43.204 85.888 41.812 85.204 41.812 83.968C41.812 82.744 43.204 82.06 45.508 82.06ZM40.636 80.26H50.368V81.064H40.636V80.26ZM59.9071 75.136V82.996H58.9231V75.136H59.9071ZM52.2871 78.52C52.2871 79.588 53.0791 80.332 54.1231 80.332C55.1911 80.332 55.9831 79.588 55.9831 78.52C55.9831 77.476 55.1911 76.732 54.1231 76.732C53.0791 76.732 52.2871 77.476 52.2871 78.52ZM56.9431 78.52C56.9431 80.08 55.7311 81.184 54.1231 81.184C52.5271 81.184 51.3271 80.08 51.3271 78.52C51.3271 76.972 52.5271 75.88 54.1231 75.88C55.7311 75.88 56.9431 76.972 56.9431 78.52ZM53.9671 84.844H60.2311V85.648H52.9831V82.192H53.9671V84.844ZM62.8701 77.236V82.42C64.3101 82.408 65.3301 82.348 66.5061 82.096L66.5901 82.912C65.3061 83.188 64.2141 83.236 62.6061 83.236H61.8981V76.432H65.9061V77.236H62.8701ZM69.7101 75.124H70.6581V85.888H69.7101V80.248H68.1861V85.348H67.2621V75.364H68.1861V79.444H69.7101V75.124ZM72.5892 76.288H77.6292C77.6292 79.396 76.2012 82.132 72.6252 83.884L72.0972 83.08C74.9892 81.7 76.4292 79.636 76.6332 77.08H72.5892V76.288ZM79.8012 75.124H80.7852V85.888H79.8012V75.124ZM84.6242 87.364C83.5202 85.564 82.8602 83.632 82.8602 81.268C82.8602 78.916 83.5202 76.972 84.6242 75.184L85.3082 75.496C84.2642 77.212 83.7722 79.228 83.7722 81.268C83.7722 83.308 84.2642 85.336 85.3082 87.04L84.6242 87.364ZM95.5909 80.452V81.256H91.1989V85.9H90.2029V81.256H85.8589V80.452H92.9989C93.3349 78.904 93.3349 77.764 93.3349 76.756V76.612H87.0709V75.82H94.2949V76.756C94.2949 77.764 94.2949 78.904 93.9949 80.452H95.5909ZM99.8936 77.74C99.8936 78.568 100.602 79.108 101.634 79.108C102.642 79.108 103.362 78.568 103.362 77.74C103.362 76.924 102.642 76.372 101.634 76.372C100.602 76.372 99.8936 76.924 99.8936 77.74ZM105.066 80.608L105.126 81.328C102.882 81.736 100.326 81.772 98.4896 81.772L98.3576 80.968C99.1856 80.968 100.146 80.956 101.154 80.92V79.84C99.8456 79.684 98.9816 78.892 98.9816 77.74C98.9816 76.48 100.062 75.628 101.634 75.628C103.194 75.628 104.286 76.48 104.286 77.74C104.286 78.88 103.422 79.672 102.138 79.828V80.884C103.134 80.824 104.13 80.752 105.066 80.608ZM100.89 82.672V84.832H107.094V85.636H99.9056V82.672H100.89ZM106.71 78.772H108.282V79.588H106.71V83.368H105.726V75.136H106.71V78.772ZM112.505 81.712V83.752H114.965V81.712H112.505ZM115.937 83.752H118.577V84.556H108.797V83.752H111.533V81.712H110.021V78.388H116.405V76.72H109.997V75.916H117.365V79.18H110.993V80.908H117.617V81.712H115.937V83.752ZM128.416 78.64L128.044 79.408C126.388 79.144 124.804 78.28 124.12 77.056C123.448 78.292 121.852 79.144 120.184 79.408L119.824 78.64C121.744 78.364 123.616 77.188 123.616 75.784V75.304H124.624V75.784C124.624 77.152 126.508 78.364 128.416 78.64ZM124.12 85.12C125.8 85.12 126.796 84.712 126.796 83.968C126.796 83.236 125.8 82.816 124.12 82.816C122.416 82.816 121.42 83.236 121.42 83.968C121.42 84.712 122.416 85.12 124.12 85.12ZM124.12 82.06C126.412 82.06 127.792 82.744 127.792 83.968C127.792 85.204 126.412 85.888 124.12 85.888C121.816 85.888 120.424 85.204 120.424 83.968C120.424 82.744 121.816 82.06 124.12 82.06ZM119.248 80.26H128.98V81.064H119.248V80.26ZM138.519 75.136V82.996H137.535V75.136H138.519ZM130.899 78.52C130.899 79.588 131.691 80.332 132.735 80.332C133.803 80.332 134.595 79.588 134.595 78.52C134.595 77.476 133.803 76.732 132.735 76.732C131.691 76.732 130.899 77.476 130.899 78.52ZM135.555 78.52C135.555 80.08 134.343 81.184 132.735 81.184C131.139 81.184 129.939 80.08 129.939 78.52C129.939 76.972 131.139 75.88 132.735 75.88C134.343 75.88 135.555 76.972 135.555 78.52ZM132.579 84.844H138.843V85.648H131.595V82.192H132.579V84.844ZM141.482 77.236V82.42C142.922 82.408 143.942 82.348 145.118 82.096L145.202 82.912C143.918 83.188 142.826 83.236 141.218 83.236H140.51V76.432H144.518V77.236H141.482ZM148.322 75.124H149.27V85.888H148.322V80.248H146.798V85.348H145.874V75.364H146.798V79.444H148.322V75.124ZM151.201 76.288H156.241C156.241 79.396 154.813 82.132 151.237 83.884L150.709 83.08C153.601 81.7 155.041 79.636 155.245 77.08H151.201V76.288ZM158.413 75.124H159.397V85.888H158.413V75.124ZM160.5 87.148L164.1 75.472H164.892L161.304 87.148H160.5ZM166.627 77.74C166.627 78.568 167.335 79.108 168.367 79.108C169.375 79.108 170.095 78.568 170.095 77.74C170.095 76.924 169.375 76.372 168.367 76.372C167.335 76.372 166.627 76.924 166.627 77.74ZM171.799 80.608L171.859 81.328C169.615 81.736 167.059 81.772 165.223 81.772L165.091 80.968C165.919 80.968 166.879 80.956 167.887 80.92V79.84C166.579 79.684 165.715 78.892 165.715 77.74C165.715 76.48 166.795 75.628 168.367 75.628C169.927 75.628 171.019 76.48 171.019 77.74C171.019 78.88 170.155 79.672 168.871 79.828V80.884C169.867 80.824 170.863 80.752 171.799 80.608ZM167.623 82.672V84.832H173.827V85.636H166.639V82.672H167.623ZM173.443 78.772H175.015V79.588H173.443V83.368H172.459V75.136H173.443V78.772ZM179.238 81.712V83.752H181.698V81.712H179.238ZM182.67 83.752H185.31V84.556H175.53V83.752H178.266V81.712H176.754V78.388H183.138V76.72H176.73V75.916H184.098V79.18H177.726V80.908H184.35V81.712H182.67V83.752ZM188.105 78.616V80.596H193.601V78.616H188.105ZM191.345 83.704H195.737V84.508H185.981V83.704H190.349V81.388H187.133V75.892H188.105V77.812H193.601V75.892H194.561V81.388H191.345V83.704ZM204.016 77.272V77.008H197.452V76.204H205V77.272C205 78.604 205 80.08 204.592 82.252L203.608 82.144C204.016 80.08 204.016 78.568 204.016 77.272ZM201.196 83.572H206.164V84.376H196.432V83.572H200.212V79.72H201.196V83.572ZM207.411 87.364L206.739 87.04C207.771 85.336 208.275 83.308 208.275 81.268C208.275 79.228 207.771 77.212 206.739 75.496L207.411 75.184C208.527 76.972 209.187 78.916 209.187 81.268C209.187 83.632 208.527 85.564 207.411 87.364ZM213.43 80.32C212.998 80.32 212.638 79.972 212.638 79.492C212.638 78.988 212.998 78.64 213.43 78.64C213.862 78.64 214.222 78.988 214.222 79.492C214.222 79.972 213.862 80.32 213.43 80.32ZM213.43 85.156C212.998 85.156 212.638 84.82 212.638 84.328C212.638 83.824 212.998 83.476 213.43 83.476C213.862 83.476 214.222 83.824 214.222 84.328C214.222 84.82 213.862 85.156 213.43 85.156ZM223.569 80.308L223.077 81.076C221.877 80.644 220.953 79.744 220.485 78.64C220.017 79.876 219.033 80.86 217.773 81.316L217.257 80.548C218.853 79.972 219.969 78.544 219.969 77.02V76.612H217.569V75.808H223.317V76.612H220.953V77.008C220.953 78.412 222.009 79.756 223.569 80.308ZM220.053 82.732V84.952H225.129V82.732H220.053ZM219.093 85.744V81.952H226.089V85.744H219.093ZM225.093 75.124H226.089V81.424H225.093V78.64H222.969V77.824H225.093V75.124ZM228.32 75.808H233.18C233.18 78.532 231.272 80.464 228.188 81.34L227.78 80.572C230.336 79.84 231.932 78.436 232.136 76.612H228.32V75.808ZM230.54 82.504V84.94H235.556V82.504H230.54ZM229.568 85.732V81.724H236.528V85.732H229.568ZM235.532 75.124H236.528V81.268H235.532V78.7H233.192V77.896H235.532V75.124ZM244.327 79.444L244.435 80.236C242.959 80.536 241.687 80.62 239.431 80.62H238.591V75.844H243.331V76.636H239.575V79.804C241.699 79.804 242.923 79.72 244.327 79.444ZM240.655 82.576V84.94H245.479V82.576H240.655ZM239.695 85.732V81.796H246.451V85.732H239.695ZM248.047 77.752V78.568H246.451V81.22H245.467V75.112H246.451V77.752H248.047ZM254.778 79.492L254.886 80.296C253.41 80.596 252.126 80.668 249.858 80.668H249.018V75.952H253.77V76.744H249.99V79.864C252.126 79.864 253.362 79.792 254.778 79.492ZM253.47 85.084C255.054 85.084 256.038 84.604 256.038 83.812C256.038 83.02 255.054 82.54 253.47 82.54C251.874 82.54 250.89 83.02 250.89 83.812C250.89 84.604 251.874 85.084 253.47 85.084ZM253.47 81.748C255.642 81.748 257.01 82.516 257.01 83.812C257.01 85.108 255.642 85.876 253.47 85.876C251.286 85.876 249.918 85.108 249.918 83.812C249.918 82.516 251.286 81.748 253.47 81.748ZM256.902 77.92H258.486V78.736H256.902V81.532H255.906V75.124H256.902V77.92ZM262.601 77.044V78.412C262.601 80.128 263.825 82.036 265.385 82.768L264.821 83.56C263.621 82.96 262.613 81.7 262.121 80.26C261.629 81.832 260.585 83.2 259.373 83.824L258.797 83.044C260.333 82.276 261.629 80.236 261.629 78.412V77.044H259.169V76.228H264.989V77.044H262.601ZM269.033 79.468V80.296H267.257V85.888H266.273V75.136H267.257V79.468H269.033ZM269.992 76.276H274.912C274.912 79.336 273.508 82.108 270.028 83.848L269.488 83.08C272.236 81.7 273.712 79.636 273.94 77.092H269.992V76.276ZM279.424 79.492V80.308H277.696V85.888H276.712V75.124H277.696V79.492H279.424ZM288.191 80.392L287.687 81.16C286.487 80.74 285.563 79.864 285.095 78.76C284.639 79.96 283.667 80.908 282.407 81.376L281.891 80.596C283.511 80.032 284.591 78.64 284.591 77.104V76.672H282.179V75.88H287.951V76.672H285.575V77.092C285.575 78.52 286.607 79.852 288.191 80.392ZM283.283 82.984V82.192H290.291V85.9H289.307V82.984H283.283ZM291.887 77.956V78.772H290.291V81.616H289.307V75.136H290.291V77.956H291.887ZM300.262 84.952V83.56H295.33V84.952H300.262ZM300.262 82.792V81.424H301.246V85.744H294.358V81.424H295.33V82.792H300.262ZM295.318 79.792C296.386 79.792 297.154 79.096 297.154 78.112C297.154 77.128 296.386 76.444 295.318 76.444C294.25 76.444 293.482 77.128 293.482 78.112C293.482 79.096 294.25 79.792 295.318 79.792ZM300.25 75.136H301.246V80.908H300.25V78.496H298.066C297.874 79.768 296.794 80.608 295.318 80.608C293.71 80.608 292.546 79.6 292.546 78.112C292.546 76.636 293.71 75.628 295.318 75.628C296.77 75.628 297.85 76.444 298.054 77.692H300.25V75.136ZM306.425 77.74C306.425 78.568 307.133 79.108 308.165 79.108C309.173 79.108 309.893 78.568 309.893 77.74C309.893 76.924 309.173 76.372 308.165 76.372C307.133 76.372 306.425 76.924 306.425 77.74ZM311.597 80.608L311.657 81.328C309.413 81.736 306.857 81.772 305.021 81.772L304.889 80.968C305.717 80.968 306.677 80.956 307.685 80.92V79.84C306.377 79.684 305.513 78.892 305.513 77.74C305.513 76.48 306.593 75.628 308.165 75.628C309.725 75.628 310.817 76.48 310.817 77.74C310.817 78.88 309.953 79.672 308.669 79.828V80.884C309.665 80.824 310.661 80.752 311.597 80.608ZM307.421 82.672V84.832H313.625V85.636H306.437V82.672H307.421ZM313.241 78.772H314.813V79.588H313.241V83.368H312.257V75.136H313.241V78.772ZM319.036 81.712V83.752H321.496V81.712H319.036ZM322.468 83.752H325.108V84.556H315.328V83.752H318.064V81.712H316.552V78.388H322.936V76.72H316.528V75.916H323.896V79.18H317.524V80.908H324.148V81.712H322.468V83.752ZM336.683 75.124V81.304H335.699V75.124H336.683ZM332.495 79.432V76.6H329.387V79.432H332.495ZM333.455 75.82V80.224H328.427V75.82H333.455ZM336.935 82.792H333.791C333.803 83.824 335.471 84.868 337.319 85.096L336.983 85.852C335.363 85.624 333.923 84.88 333.287 83.884C332.639 84.904 331.151 85.624 329.531 85.852L329.207 85.096C331.043 84.88 332.759 83.86 332.771 82.792H329.627V82.036H332.783V80.992H333.779V82.036H336.935V82.792ZM342.509 78.616V80.596H348.005V78.616H342.509ZM345.749 83.704H350.141V84.508H340.385V83.704H344.753V81.388H341.537V75.892H342.509V77.812H348.005V75.892H348.965V81.388H345.749V83.704ZM358.42 77.272V77.008H351.856V76.204H359.404V77.272C359.404 78.604 359.404 80.08 358.996 82.252L358.012 82.144C358.42 80.08 358.42 78.568 358.42 77.272ZM355.6 83.572H360.568V84.376H350.836V83.572H354.616V79.72H355.6V83.572ZM368.799 77.008V76.132H362.487V75.436H369.771V77.68H363.483V78.604H369.963V79.312H362.511V77.008H368.799ZM363.423 84.04V85.036H370.143V85.744H362.451V83.356H368.835V82.456H362.427V81.748H369.807V84.04H363.423ZM361.263 80.128H371.019V80.872H361.263V80.128ZM375.946 83.92V85H382.594V85.768H374.986V83.188H381.298V82.228H374.95V81.484H382.27V83.92H375.946ZM375.874 77.116C375.874 77.836 376.882 78.244 378.646 78.244C380.41 78.244 381.418 77.836 381.418 77.116C381.418 76.396 380.41 75.988 378.646 75.988C376.882 75.988 375.874 76.396 375.874 77.116ZM379.138 79.792H383.506V80.584H373.786V79.792H378.154V78.976C376.078 78.892 374.866 78.232 374.866 77.116C374.866 75.904 376.282 75.244 378.646 75.244C381.022 75.244 382.426 75.904 382.426 77.116C382.426 78.244 381.202 78.892 379.138 78.976V79.792ZM393.045 75.136V83.056H392.061V75.136H393.045ZM390.777 80.368L390.873 81.172C389.157 81.46 387.717 81.532 385.653 81.532H384.789V78.256H388.677V76.684H384.753V75.892H389.649V79H385.749V80.728C387.717 80.728 389.121 80.656 390.777 80.368ZM387.009 84.844H393.345V85.648H386.025V82.444H387.009V84.844ZM402.964 80.188L402.448 80.956C401.284 80.524 400.36 79.636 399.88 78.532C399.436 79.792 398.476 80.776 397.216 81.256L396.7 80.476C398.332 79.888 399.376 78.424 399.376 76.78V75.676H400.36V76.864C400.36 78.316 401.416 79.66 402.964 80.188ZM401.68 85.108C403.264 85.108 404.236 84.664 404.236 83.92C404.236 83.164 403.264 82.72 401.68 82.72C400.084 82.72 399.112 83.164 399.112 83.92C399.112 84.664 400.084 85.108 401.68 85.108ZM401.68 81.952C403.864 81.952 405.22 82.66 405.22 83.92C405.22 85.168 403.864 85.876 401.68 85.876C399.484 85.876 398.128 85.168 398.128 83.92C398.128 82.66 399.484 81.952 401.68 81.952ZM405.1 77.908H406.696V78.724H405.1V81.652H404.116V75.136H405.1V77.908ZM408.555 79.984V82.408C410.127 82.408 411.087 82.36 412.239 82.132L412.335 82.948C411.087 83.188 410.055 83.224 408.315 83.224H407.607V76.36H411.855V77.164H408.555V79.204H411.687V79.984H408.555ZM415.395 75.124H416.331V85.888H415.395V80.248H413.967V85.36H413.031V75.364H413.967V79.444H415.395V75.124ZM48.508 95.76V93.78H46.732V92.976H48.508V91.848H46.732V91.044H48.508V89.136H49.504V95.76H48.508ZM42.976 90.732V94.284C43.504 94.272 44.056 94.248 44.596 94.224V90.732H42.976ZM46.96 94.032L47.02 94.764C44.944 95.088 42.52 95.124 40.78 95.124L40.672 94.308C41.08 94.308 41.548 94.308 42.028 94.296V90.732H40.96V89.94H46.624V90.732H45.556V94.164C46.036 94.128 46.516 94.092 46.96 94.032ZM45.952 99.108C47.584 99.108 48.556 98.676 48.556 97.92C48.556 97.188 47.584 96.744 45.952 96.744C44.32 96.744 43.348 97.188 43.348 97.92C43.348 98.676 44.32 99.108 45.952 99.108ZM45.952 95.988C48.172 95.988 49.54 96.684 49.54 97.92C49.54 99.168 48.172 99.876 45.952 99.876C43.72 99.876 42.364 99.168 42.364 97.92C42.364 96.684 43.72 95.988 45.952 95.988ZM51.6511 90.276H56.5711C56.5711 93.336 55.1671 96.108 51.6871 97.848L51.1471 97.08C53.8951 95.7 55.3711 93.636 55.5991 91.092H51.6511V90.276ZM61.0831 93.492V94.308H59.3551V99.888H58.3711V89.124H59.3551V93.492H61.0831ZM62.8701 91.236V96.42C64.3101 96.408 65.3301 96.348 66.5061 96.096L66.5901 96.912C65.3061 97.188 64.2141 97.236 62.6061 97.236H61.8981V90.432H65.9061V91.236H62.8701ZM69.7101 89.124H70.6581V99.888H69.7101V94.248H68.1861V99.348H67.2621V89.364H68.1861V93.444H69.7101V89.124ZM72.5892 90.288H77.6292C77.6292 93.396 76.2012 96.132 72.6252 97.884L72.0972 97.08C74.9892 95.7 76.4292 93.636 76.6332 91.08H72.5892V90.288ZM79.8012 89.124H80.7852V99.888H79.8012V89.124ZM84.6242 101.364C83.5202 99.564 82.8602 97.632 82.8602 95.268C82.8602 92.916 83.5202 90.972 84.6242 89.184L85.3082 89.496C84.2642 91.212 83.7722 93.228 83.7722 95.268C83.7722 97.308 84.2642 99.336 85.3082 101.04L84.6242 101.364ZM95.5909 94.452V95.256H91.1989V99.9H90.2029V95.256H85.8589V94.452H92.9989C93.3349 92.904 93.3349 91.764 93.3349 90.756V90.612H87.0709V89.82H94.2949V90.756C94.2949 91.764 94.2949 92.904 93.9949 94.452H95.5909ZM106.242 95.76V93.78H104.466V92.976H106.242V91.848H104.466V91.044H106.242V89.136H107.238V95.76H106.242ZM100.71 90.732V94.284C101.238 94.272 101.79 94.248 102.33 94.224V90.732H100.71ZM104.694 94.032L104.754 94.764C102.678 95.088 100.254 95.124 98.5136 95.124L98.4056 94.308C98.8136 94.308 99.2816 94.308 99.7616 94.296V90.732H98.6936V89.94H104.358V90.732H103.29V94.164C103.77 94.128 104.25 94.092 104.694 94.032ZM103.686 99.108C105.318 99.108 106.29 98.676 106.29 97.92C106.29 97.188 105.318 96.744 103.686 96.744C102.054 96.744 101.082 97.188 101.082 97.92C101.082 98.676 102.054 99.108 103.686 99.108ZM103.686 95.988C105.906 95.988 107.274 96.684 107.274 97.92C107.274 99.168 105.906 99.876 103.686 99.876C101.454 99.876 100.098 99.168 100.098 97.92C100.098 96.684 101.454 95.988 103.686 95.988ZM109.385 90.276H114.305C114.305 93.336 112.901 96.108 109.421 97.848L108.881 97.08C111.629 95.7 113.105 93.636 113.333 91.092H109.385V90.276ZM118.817 93.492V94.308H117.089V99.888H116.105V89.124H117.089V93.492H118.817ZM120.604 91.236V96.42C122.044 96.408 123.064 96.348 124.24 96.096L124.324 96.912C123.04 97.188 121.948 97.236 120.34 97.236H119.632V90.432H123.64V91.236H120.604ZM127.444 89.124H128.392V99.888H127.444V94.248H125.92V99.348H124.996V89.364H125.92V93.444H127.444V89.124ZM130.323 90.288H135.363C135.363 93.396 133.935 96.132 130.359 97.884L129.831 97.08C132.723 95.7 134.163 93.636 134.367 91.08H130.323V90.288ZM137.535 89.124H138.519V99.888H137.535V89.124ZM140.678 101.364L140.006 101.04C141.038 99.336 141.542 97.308 141.542 95.268C141.542 93.228 141.038 91.212 140.006 89.496L140.678 89.184C141.794 90.972 142.454 92.916 142.454 95.268C142.454 97.632 141.794 99.564 140.678 101.364ZM146.696 94.32C146.264 94.32 145.904 93.972 145.904 93.492C145.904 92.988 146.264 92.64 146.696 92.64C147.128 92.64 147.488 92.988 147.488 93.492C147.488 93.972 147.128 94.32 146.696 94.32ZM146.696 99.156C146.264 99.156 145.904 98.82 145.904 98.328C145.904 97.824 146.264 97.476 146.696 97.476C147.128 97.476 147.488 97.824 147.488 98.328C147.488 98.82 147.128 99.156 146.696 99.156ZM159.656 92.64L159.284 93.408C157.628 93.144 156.044 92.28 155.36 91.056C154.688 92.292 153.092 93.144 151.424 93.408L151.064 92.64C152.984 92.364 154.856 91.188 154.856 89.784V89.304H155.864V89.784C155.864 91.152 157.748 92.364 159.656 92.64ZM155.36 99.12C157.04 99.12 158.036 98.712 158.036 97.968C158.036 97.236 157.04 96.816 155.36 96.816C153.656 96.816 152.66 97.236 152.66 97.968C152.66 98.712 153.656 99.12 155.36 99.12ZM155.36 96.06C157.652 96.06 159.032 96.744 159.032 97.968C159.032 99.204 157.652 99.888 155.36 99.888C153.056 99.888 151.664 99.204 151.664 97.968C151.664 96.744 153.056 96.06 155.36 96.06ZM150.488 94.26H160.22V95.064H150.488V94.26ZM169.759 89.136V96.996H168.775V89.136H169.759ZM162.139 92.52C162.139 93.588 162.931 94.332 163.975 94.332C165.043 94.332 165.835 93.588 165.835 92.52C165.835 91.476 165.043 90.732 163.975 90.732C162.931 90.732 162.139 91.476 162.139 92.52ZM166.795 92.52C166.795 94.08 165.583 95.184 163.975 95.184C162.379 95.184 161.179 94.08 161.179 92.52C161.179 90.972 162.379 89.88 163.975 89.88C165.583 89.88 166.795 90.972 166.795 92.52ZM163.819 98.844H170.083V99.648H162.835V96.192H163.819V98.844ZM177.594 93.444L177.702 94.236C176.226 94.536 174.954 94.62 172.698 94.62H171.858V89.844H176.598V90.636H172.842V93.804C174.966 93.804 176.19 93.72 177.594 93.444ZM173.922 96.576V98.94H178.746V96.576H173.922ZM172.962 99.732V95.796H179.718V99.732H172.962ZM181.314 91.752V92.568H179.718V95.22H178.734V89.112H179.718V91.752H181.314ZM188.045 93.492L188.153 94.296C186.677 94.596 185.393 94.668 183.125 94.668H182.285V89.952H187.037V90.744H183.257V93.864C185.393 93.864 186.629 93.792 188.045 93.492ZM186.737 99.084C188.321 99.084 189.305 98.604 189.305 97.812C189.305 97.02 188.321 96.54 186.737 96.54C185.141 96.54 184.157 97.02 184.157 97.812C184.157 98.604 185.141 99.084 186.737 99.084ZM186.737 95.748C188.909 95.748 190.277 96.516 190.277 97.812C190.277 99.108 188.909 99.876 186.737 99.876C184.553 99.876 183.185 99.108 183.185 97.812C183.185 96.516 184.553 95.748 186.737 95.748ZM190.169 91.92H191.753V92.736H190.169V95.532H189.173V89.124H190.169V91.92ZM195.868 91.044V92.412C195.868 94.128 197.092 96.036 198.652 96.768L198.088 97.56C196.888 96.96 195.88 95.7 195.388 94.26C194.896 95.832 193.852 97.2 192.64 97.824L192.064 97.044C193.6 96.276 194.896 94.236 194.896 92.412V91.044H192.436V90.228H198.256V91.044H195.868ZM202.3 93.468V94.296H200.524V99.888H199.54V89.136H200.524V93.468H202.3ZM203.259 90.276H208.179C208.179 93.336 206.775 96.108 203.295 97.848L202.755 97.08C205.503 95.7 206.979 93.636 207.207 91.092H203.259V90.276ZM212.691 93.492V94.308H210.963V99.888H209.979V89.124H210.963V93.492H212.691ZM221.458 94.392L220.954 95.16C219.754 94.74 218.83 93.864 218.362 92.76C217.906 93.96 216.934 94.908 215.674 95.376L215.158 94.596C216.778 94.032 217.858 92.64 217.858 91.104V90.672H215.446V89.88H221.218V90.672H218.842V91.092C218.842 92.52 219.874 93.852 221.458 94.392ZM216.55 96.984V96.192H223.558V99.9H222.574V96.984H216.55ZM225.154 91.956V92.772H223.558V95.616H222.574V89.136H223.558V91.956H225.154ZM233.529 98.952V97.56H228.597V98.952H233.529ZM233.529 96.792V95.424H234.513V99.744H227.625V95.424H228.597V96.792H233.529ZM228.585 93.792C229.653 93.792 230.421 93.096 230.421 92.112C230.421 91.128 229.653 90.444 228.585 90.444C227.517 90.444 226.749 91.128 226.749 92.112C226.749 93.096 227.517 93.792 228.585 93.792ZM233.517 89.136H234.513V94.908H233.517V92.496H231.333C231.141 93.768 230.061 94.608 228.585 94.608C226.977 94.608 225.813 93.6 225.813 92.112C225.813 90.636 226.977 89.628 228.585 89.628C230.037 89.628 231.117 90.444 231.321 91.692H233.517V89.136ZM240.944 90.048C239.18 90.048 238.172 90.456 238.172 91.176C238.172 91.896 239.18 92.304 240.944 92.304C242.708 92.304 243.716 91.896 243.716 91.176C243.716 90.456 242.708 90.048 240.944 90.048ZM240.944 93.036C238.58 93.036 237.164 92.388 237.164 91.176C237.164 89.964 238.58 89.304 240.944 89.304C243.308 89.304 244.724 89.964 244.724 91.176C244.724 92.388 243.308 93.036 240.944 93.036ZM238.244 97.908V99H244.892V99.768H237.284V97.188H243.596V96.228H237.248V95.484H244.568V97.908H238.244ZM236.072 93.768H245.816V94.56H236.072V93.768ZM256.478 95.76V93.78H254.702V92.976H256.478V91.848H254.702V91.044H256.478V89.136H257.474V95.76H256.478ZM250.946 90.732V94.284C251.474 94.272 252.026 94.248 252.566 94.224V90.732H250.946ZM254.93 94.032L254.99 94.764C252.914 95.088 250.49 95.124 248.75 95.124L248.642 94.308C249.05 94.308 249.518 94.308 249.998 94.296V90.732H248.93V89.94H254.594V90.732H253.526V94.164C254.006 94.128 254.486 94.092 254.93 94.032ZM253.922 99.108C255.554 99.108 256.526 98.676 256.526 97.92C256.526 97.188 255.554 96.744 253.922 96.744C252.29 96.744 251.318 97.188 251.318 97.92C251.318 98.676 252.29 99.108 253.922 99.108ZM253.922 95.988C256.142 95.988 257.51 96.684 257.51 97.92C257.51 99.168 256.142 99.876 253.922 99.876C251.69 99.876 250.334 99.168 250.334 97.92C250.334 96.684 251.69 95.988 253.922 95.988ZM259.621 90.276H264.541C264.541 93.336 263.137 96.108 259.657 97.848L259.117 97.08C261.865 95.7 263.341 93.636 263.569 91.092H259.621V90.276ZM269.053 93.492V94.308H267.325V99.888H266.341V89.124H267.325V93.492H269.053ZM272.64 96.672C273.624 96.672 274.332 95.976 274.332 95.016C274.332 94.044 273.624 93.348 272.64 93.348C271.668 93.348 270.96 94.044 270.96 95.016C270.96 95.976 271.668 96.672 272.64 96.672ZM272.64 92.532C274.176 92.532 275.268 93.564 275.268 95.016C275.268 96.48 274.176 97.488 272.64 97.488C271.128 97.488 270.036 96.48 270.036 95.016C270.036 93.564 271.128 92.532 272.64 92.532ZM273.12 89.256V90.852H275.772V91.644H269.424V90.852H272.136V89.256H273.12ZM279.54 93.552V94.38H277.776V99.888H276.792V89.136H277.776V93.552H279.54ZM287.52 91.272V91.008H280.956V90.204H288.504V91.272C288.504 92.604 288.504 94.08 288.096 96.252L287.112 96.144C287.52 94.08 287.52 92.568 287.52 91.272ZM284.7 97.572H289.668V98.376H279.936V97.572H283.716V93.72H284.7V97.572ZM301.278 89.136V95.28H300.294V89.136H301.278ZM295.494 90.576C294.426 90.576 293.658 91.284 293.658 92.268C293.658 93.264 294.426 93.96 295.494 93.96C296.562 93.96 297.354 93.264 297.354 92.268C297.354 91.284 296.562 90.576 295.494 90.576ZM295.494 94.776C293.874 94.776 292.698 93.756 292.698 92.268C292.698 90.78 293.874 89.76 295.494 89.76C297.126 89.76 298.314 90.78 298.314 92.268C298.314 93.756 297.126 94.776 295.494 94.776ZM300.078 95.748V96.324C300.078 97.44 300.87 98.544 302.238 99L301.746 99.744C300.69 99.36 299.946 98.616 299.586 97.716C299.25 98.592 298.59 99.408 297.594 99.84C296.562 99.432 295.914 98.652 295.59 97.752C295.206 98.616 294.474 99.36 293.466 99.744L292.974 99C294.33 98.52 295.134 97.356 295.134 96.324V95.748H296.082V96.324C296.082 97.272 296.574 98.292 297.57 98.88C298.602 98.244 299.118 97.164 299.118 96.324V95.748H300.078ZM311.513 92.364V93.168H304.193V89.52H305.177V92.364H311.513ZM305.105 96.48V98.82H311.573V99.624H304.121V96.48H305.105ZM302.873 94.608H312.629V95.4H302.873V94.608ZM321.624 94.188L321.108 94.956C319.944 94.524 319.02 93.636 318.54 92.532C318.096 93.792 317.136 94.776 315.876 95.256L315.36 94.476C316.992 93.888 318.036 92.424 318.036 90.78V89.676H319.02V90.864C319.02 92.316 320.076 93.66 321.624 94.188ZM320.34 99.108C321.924 99.108 322.896 98.664 322.896 97.92C322.896 97.164 321.924 96.72 320.34 96.72C318.744 96.72 317.772 97.164 317.772 97.92C317.772 98.664 318.744 99.108 320.34 99.108ZM320.34 95.952C322.524 95.952 323.88 96.66 323.88 97.92C323.88 99.168 322.524 99.876 320.34 99.876C318.144 99.876 316.788 99.168 316.788 97.92C316.788 96.66 318.144 95.952 320.34 95.952ZM323.76 91.908H325.356V92.724H323.76V95.652H322.776V89.136H323.76V91.908ZM327.215 93.984V96.408C328.787 96.408 329.747 96.36 330.899 96.132L330.995 96.948C329.747 97.188 328.715 97.224 326.975 97.224H326.267V90.36H330.515V91.164H327.215V93.204H330.347V93.984H327.215ZM334.055 89.124H334.991V99.888H334.055V94.248H332.627V99.36H331.691V89.364H332.627V93.444H334.055V89.124ZM42.16 105.74C42.16 106.568 42.868 107.108 43.9 107.108C44.908 107.108 45.628 106.568 45.628 105.74C45.628 104.924 44.908 104.372 43.9 104.372C42.868 104.372 42.16 104.924 42.16 105.74ZM47.332 108.608L47.392 109.328C45.148 109.736 42.592 109.772 40.756 109.772L40.624 108.968C41.452 108.968 42.412 108.956 43.42 108.92V107.84C42.112 107.684 41.248 106.892 41.248 105.74C41.248 104.48 42.328 103.628 43.9 103.628C45.46 103.628 46.552 104.48 46.552 105.74C46.552 106.88 45.688 107.672 44.404 107.828V108.884C45.4 108.824 46.396 108.752 47.332 108.608ZM43.156 110.672V112.832H49.36V113.636H42.172V110.672H43.156ZM48.976 106.772H50.548V107.588H48.976V111.368H47.992V103.136H48.976V106.772ZM54.7711 109.712V111.752H57.2311V109.712H54.7711ZM58.2031 111.752H60.8431V112.556H51.0631V111.752H53.7991V109.712H52.2871V106.388H58.6711V104.72H52.2631V103.916H59.6311V107.18H53.2591V108.908H59.8831V109.712H58.2031V111.752ZM63.6381 106.616V108.596H69.1341V106.616H63.6381ZM66.8781 111.704H71.2701V112.508H61.5141V111.704H65.8821V109.388H62.6661V103.892H63.6381V105.812H69.1341V103.892H70.0941V109.388H66.8781V111.704ZM79.5492 105.272V105.008H72.9852V104.204H80.5332V105.272C80.5332 106.604 80.5332 108.08 80.1252 110.252L79.1412 110.144C79.5492 108.08 79.5492 106.568 79.5492 105.272ZM76.7292 111.572H81.6972V112.376H71.9652V111.572H75.7452V107.72H76.7292V111.572ZM84.6242 115.364C83.5202 113.564 82.8602 111.632 82.8602 109.268C82.8602 106.916 83.5202 104.972 84.6242 103.184L85.3082 103.496C84.2642 105.212 83.7722 107.228 83.7722 109.268C83.7722 111.308 84.2642 113.336 85.3082 115.04L84.6242 115.364ZM95.5909 108.452V109.256H91.1989V113.9H90.2029V109.256H85.8589V108.452H92.9989C93.3349 106.904 93.3349 105.764 93.3349 104.756V104.612H87.0709V103.82H94.2949V104.756C94.2949 105.764 94.2949 106.904 93.9949 108.452H95.5909ZM99.8936 105.74C99.8936 106.568 100.602 107.108 101.634 107.108C102.642 107.108 103.362 106.568 103.362 105.74C103.362 104.924 102.642 104.372 101.634 104.372C100.602 104.372 99.8936 104.924 99.8936 105.74ZM105.066 108.608L105.126 109.328C102.882 109.736 100.326 109.772 98.4896 109.772L98.3576 108.968C99.1856 108.968 100.146 108.956 101.154 108.92V107.84C99.8456 107.684 98.9816 106.892 98.9816 105.74C98.9816 104.48 100.062 103.628 101.634 103.628C103.194 103.628 104.286 104.48 104.286 105.74C104.286 106.88 103.422 107.672 102.138 107.828V108.884C103.134 108.824 104.13 108.752 105.066 108.608ZM100.89 110.672V112.832H107.094V113.636H99.9056V110.672H100.89ZM106.71 106.772H108.282V107.588H106.71V111.368H105.726V103.136H106.71V106.772ZM112.505 109.712V111.752H114.965V109.712H112.505ZM115.937 111.752H118.577V112.556H108.797V111.752H111.533V109.712H110.021V106.388H116.405V104.72H109.997V103.916H117.365V107.18H110.993V108.908H117.617V109.712H115.937V111.752ZM121.372 106.616V108.596H126.868V106.616H121.372ZM124.612 111.704H129.004V112.508H119.248V111.704H123.616V109.388H120.4V103.892H121.372V105.812H126.868V103.892H127.828V109.388H124.612V111.704ZM137.283 105.272V105.008H130.719V104.204H138.267V105.272C138.267 106.604 138.267 108.08 137.859 110.252L136.875 110.144C137.283 108.08 137.283 106.568 137.283 105.272ZM134.463 111.572H139.431V112.376H129.699V111.572H133.479V107.72H134.463V111.572ZM142.358 115.364C141.254 113.564 140.594 111.632 140.594 109.268C140.594 106.916 141.254 104.972 142.358 103.184L143.042 103.496C141.998 105.212 141.506 107.228 141.506 109.268C141.506 111.308 141.998 113.336 143.042 115.04L142.358 115.364ZM147.469 113.156C145.285 113.156 143.641 111.464 143.641 108.608C143.641 105.764 145.309 104.036 147.541 104.036C148.609 104.036 149.449 104.564 149.953 105.128L149.353 105.848C148.897 105.356 148.309 105.008 147.553 105.008C145.885 105.008 144.781 106.376 144.781 108.572C144.781 110.792 145.837 112.184 147.517 112.184C148.357 112.184 148.993 111.812 149.557 111.2L150.169 111.896C149.473 112.7 148.609 113.156 147.469 113.156ZM151.185 115.364L150.513 115.04C151.545 113.336 152.049 111.308 152.049 109.268C152.049 107.228 151.545 105.212 150.513 103.496L151.185 103.184C152.301 104.972 152.961 106.916 152.961 109.268C152.961 111.632 152.301 113.564 151.185 115.364ZM154.64 115.364L153.968 115.04C155 113.336 155.504 111.308 155.504 109.268C155.504 107.228 155 105.212 153.968 103.496L154.64 103.184C155.756 104.972 156.416 106.916 156.416 109.268C156.416 111.632 155.756 113.564 154.64 115.364ZM160.658 108.32C160.226 108.32 159.866 107.972 159.866 107.492C159.866 106.988 160.226 106.64 160.658 106.64C161.09 106.64 161.45 106.988 161.45 107.492C161.45 107.972 161.09 108.32 160.658 108.32ZM160.658 113.156C160.226 113.156 159.866 112.82 159.866 112.328C159.866 111.824 160.226 111.476 160.658 111.476C161.09 111.476 161.45 111.824 161.45 112.328C161.45 112.82 161.09 113.156 160.658 113.156ZM170.701 108.392L170.197 109.16C168.997 108.74 168.073 107.864 167.605 106.76C167.149 107.96 166.177 108.908 164.917 109.376L164.401 108.596C166.021 108.032 167.101 106.64 167.101 105.104V104.672H164.689V103.88H170.461V104.672H168.085V105.092C168.085 106.52 169.117 107.852 170.701 108.392ZM165.793 110.984V110.192H172.801V113.9H171.817V110.984H165.793ZM174.397 105.956V106.772H172.801V109.616H171.817V103.136H172.801V105.956H174.397ZM182.772 112.952V111.56H177.84V112.952H182.772ZM182.772 110.792V109.424H183.756V113.744H176.868V109.424H177.84V110.792H182.772ZM177.828 107.792C178.896 107.792 179.664 107.096 179.664 106.112C179.664 105.128 178.896 104.444 177.828 104.444C176.76 104.444 175.992 105.128 175.992 106.112C175.992 107.096 176.76 107.792 177.828 107.792ZM182.76 103.136H183.756V108.908H182.76V106.496H180.576C180.384 107.768 179.304 108.608 177.828 108.608C176.22 108.608 175.056 107.6 175.056 106.112C175.056 104.636 176.22 103.628 177.828 103.628C179.28 103.628 180.36 104.444 180.564 105.692H182.76V103.136ZM187.763 110.612C188.603 110.612 189.155 109.52 189.155 107.756C189.155 106.028 188.603 104.936 187.763 104.936C186.899 104.936 186.359 106.028 186.359 107.756C186.359 109.52 186.899 110.612 187.763 110.612ZM191.399 107.312V103.364H192.335V113.36H191.399V108.116H190.043C189.959 110.228 189.083 111.524 187.763 111.524C186.359 111.524 185.459 110.084 185.459 107.756C185.459 105.464 186.359 104.024 187.763 104.024C189.059 104.024 189.923 105.284 190.043 107.312H191.399ZM193.535 103.124H194.471V113.888H193.535V103.124ZM199.206 105.236V110.42C200.646 110.408 201.666 110.348 202.842 110.096L202.926 110.912C201.642 111.188 200.55 111.236 198.942 111.236H198.234V104.432H202.242V105.236H199.206ZM206.046 103.124H206.994V113.888H206.046V108.248H204.522V113.348H203.598V103.364H204.522V107.444H206.046V103.124ZM214.673 104.444V105.236H208.325V104.444H211.001V103.124H211.985V104.444H214.673ZM209.861 107.828C209.861 108.584 210.521 109.064 211.493 109.064C212.465 109.064 213.137 108.584 213.137 107.828C213.137 107.084 212.465 106.604 211.493 106.604C210.521 106.604 209.861 107.084 209.861 107.828ZM214.073 107.828C214.073 109.04 213.017 109.832 211.493 109.832C209.969 109.832 208.925 109.04 208.925 107.828C208.925 106.628 209.969 105.836 211.493 105.836C213.017 105.836 214.073 106.628 214.073 107.828ZM210.929 110.564V112.844H217.121V113.648H209.945V110.564H210.929ZM216.641 106.676H218.225V107.504H216.641V111.2H215.657V103.124H216.641V106.676ZM221.472 103.808H226.332C226.332 106.532 224.424 108.464 221.34 109.34L220.932 108.572C223.488 107.84 225.084 106.436 225.288 104.612H221.472V103.808ZM223.692 110.504V112.94H228.708V110.504H223.692ZM222.72 113.732V109.724H229.68V113.732H222.72ZM228.684 103.124H229.68V109.268H228.684V106.7H226.344V105.896H228.684V103.124ZM236.615 111.74H241.019V112.544H231.239V111.74H235.631V109.52H232.499V104H239.795V104.804H233.495V106.316H239.555V107.096H233.495V108.716H239.903V109.52H236.615V111.74ZM252.593 103.124V109.304H251.609V103.124H252.593ZM248.405 107.432V104.6H245.297V107.432H248.405ZM249.365 103.82V108.224H244.337V103.82H249.365ZM252.845 110.792H249.701C249.713 111.824 251.381 112.868 253.229 113.096L252.893 113.852C251.273 113.624 249.833 112.88 249.197 111.884C248.549 112.904 247.061 113.624 245.441 113.852L245.117 113.096C246.953 112.88 248.669 111.86 248.681 110.792H245.537V110.036H248.693V108.992H249.689V110.036H252.845V110.792ZM264.168 109.76V107.78H262.392V106.976H264.168V105.848H262.392V105.044H264.168V103.136H265.164V109.76H264.168ZM258.636 104.732V108.284C259.164 108.272 259.716 108.248 260.256 108.224V104.732H258.636ZM262.62 108.032L262.68 108.764C260.604 109.088 258.18 109.124 256.44 109.124L256.332 108.308C256.74 108.308 257.208 108.308 257.688 108.296V104.732H256.62V103.94H262.284V104.732H261.216V108.164C261.696 108.128 262.176 108.092 262.62 108.032ZM261.612 113.108C263.244 113.108 264.216 112.676 264.216 111.92C264.216 111.188 263.244 110.744 261.612 110.744C259.98 110.744 259.008 111.188 259.008 111.92C259.008 112.676 259.98 113.108 261.612 113.108ZM261.612 109.988C263.832 109.988 265.2 110.684 265.2 111.92C265.2 113.168 263.832 113.876 261.612 113.876C259.38 113.876 258.024 113.168 258.024 111.92C258.024 110.684 259.38 109.988 261.612 109.988ZM267.311 104.276H272.231C272.231 107.336 270.827 110.108 267.347 111.848L266.807 111.08C269.555 109.7 271.031 107.636 271.259 105.092H267.311V104.276ZM276.743 107.492V108.308H275.015V113.888H274.031V103.124H275.015V107.492H276.743ZM284.71 105.008V104.132H278.398V103.436H285.682V105.68H279.394V106.604H285.874V107.312H278.422V105.008H284.71ZM279.334 112.04V113.036H286.054V113.744H278.362V111.356H284.746V110.456H278.338V109.748H285.718V112.04H279.334ZM277.174 108.128H286.93V108.872H277.174V108.128ZM291.221 105.74C291.221 106.568 291.929 107.108 292.961 107.108C293.969 107.108 294.689 106.568 294.689 105.74C294.689 104.924 293.969 104.372 292.961 104.372C291.929 104.372 291.221 104.924 291.221 105.74ZM296.393 108.608L296.453 109.328C294.209 109.736 291.653 109.772 289.817 109.772L289.685 108.968C290.513 108.968 291.473 108.956 292.481 108.92V107.84C291.173 107.684 290.309 106.892 290.309 105.74C290.309 104.48 291.389 103.628 292.961 103.628C294.521 103.628 295.613 104.48 295.613 105.74C295.613 106.88 294.749 107.672 293.465 107.828V108.884C294.461 108.824 295.457 108.752 296.393 108.608ZM292.217 110.672V112.832H298.421V113.636H291.233V110.672H292.217ZM298.037 106.772H299.609V107.588H298.037V111.368H297.053V103.136H298.037V106.772ZM303.832 109.712V111.752H306.292V109.712H303.832ZM307.264 111.752H309.904V112.556H300.124V111.752H302.86V109.712H301.348V106.388H307.732V104.72H301.324V103.916H308.692V107.18H302.32V108.908H308.944V109.712H307.264V111.752ZM316.959 104.444V105.236H310.611V104.444H313.287V103.124H314.271V104.444H316.959ZM312.147 107.828C312.147 108.584 312.807 109.064 313.779 109.064C314.751 109.064 315.423 108.584 315.423 107.828C315.423 107.084 314.751 106.604 313.779 106.604C312.807 106.604 312.147 107.084 312.147 107.828ZM316.359 107.828C316.359 109.04 315.303 109.832 313.779 109.832C312.255 109.832 311.211 109.04 311.211 107.828C311.211 106.628 312.255 105.836 313.779 105.836C315.303 105.836 316.359 106.628 316.359 107.828ZM313.215 110.564V112.844H319.407V113.648H312.231V110.564H313.215ZM318.927 106.676H320.511V107.504H318.927V111.2H317.943V103.124H318.927V106.676ZM329.314 108.188L328.798 108.956C327.634 108.524 326.71 107.636 326.23 106.532C325.786 107.792 324.826 108.776 323.566 109.256L323.05 108.476C324.682 107.888 325.726 106.424 325.726 104.78V103.676H326.71V104.864C326.71 106.316 327.766 107.66 329.314 108.188ZM328.03 113.108C329.614 113.108 330.586 112.664 330.586 111.92C330.586 111.164 329.614 110.72 328.03 110.72C326.434 110.72 325.462 111.164 325.462 111.92C325.462 112.664 326.434 113.108 328.03 113.108ZM328.03 109.952C330.214 109.952 331.57 110.66 331.57 111.92C331.57 113.168 330.214 113.876 328.03 113.876C325.834 113.876 324.478 113.168 324.478 111.92C324.478 110.66 325.834 109.952 328.03 109.952ZM331.45 105.908H333.046V106.724H331.45V109.652H330.466V103.136H331.45V105.908ZM334.905 107.984V110.408C336.477 110.408 337.437 110.36 338.589 110.132L338.685 110.948C337.437 111.188 336.405 111.224 334.665 111.224H333.957V104.36H338.205V105.164H334.905V107.204H338.037V107.984H334.905ZM341.745 103.124H342.681V113.888H341.745V108.248H340.317V113.36H339.381V103.364H340.317V107.444H341.745V103.124Z" fill="#424242"/>

</g>
<defs>
<filter id="filter0_d_5553_210974" x="0" y="0" width="505.481" height="151" filterUnits="userSpaceOnUse" colorInterpolationFilters="sRGB">
<feFlood floodOpacity="0" result="BackgroundImageFix"/>
<feColorMatrix in="SourceAlpha" type="matrix" values="0 0 0 0 0 0 0 0 0 0 0 0 0 0 0 0 0 0 127 0" result="hardAlpha"/>
<feOffset dy="4"/>
<feGaussianBlur stdDeviation="12"/>
<feColorMatrix type="matrix" values="0 0 0 0 0 0 0 0 0 0 0 0 0 0 0 0 0 0 0.25 0"/>
<feBlend mode="normal" in2="BackgroundImageFix" result="effect1_dropShadow_5553_210974"/>
<feBlend mode="normal" in="SourceGraphic" in2="effect1_dropShadow_5553_210974" result="shape"/>
</filter>
</defs>
</svg>
