<svg width="16" height="16" viewBox="0 0 16 16" fill="none" xmlns="http://www.w3.org/2000/svg">
<g id="icon element/help-b">
<path id="Icon" fill-rule="evenodd" clip-rule="evenodd" d="M8 1.875C4.77834 1.875 1.875 4.77834 1.875 8C1.875 11.2217 4.77834 14.125 8 14.125C11.2217 14.125 14.125 11.2217 14.125 8C14.125 4.77834 11.2217 1.875 8 1.875ZM1 8C1 4.13401 4.13401 1 8 1C11.866 1 15 4.13401 15 8C15 11.866 11.866 15 8 15C4.13401 15 1 11.866 1 8ZM8 5.27778C7.35567 5.27778 6.83333 5.80011 6.83333 6.44444C6.83333 6.76661 6.57217 7.02778 6.25 7.02778C5.92783 7.02778 5.66667 6.76661 5.66667 6.44444C5.66667 5.15578 6.71134 4.11111 8 4.11111C9.28866 4.11111 10.3333 5.15578 10.3333 6.44444C10.3333 7.53168 9.58972 8.44524 8.58333 8.70427V8.97222C8.58333 9.29439 8.32217 9.55556 8 9.55556C7.67783 9.55556 7.41667 9.29439 7.41667 8.97222V8.19444C7.41667 7.87228 7.67783 7.61111 8 7.61111C8.64433 7.61111 9.16667 7.08878 9.16667 6.44444C9.16667 5.80011 8.64433 5.27778 8 5.27778ZM8 10.3333C8.32217 10.3333 8.58333 10.5945 8.58333 10.9167V11.3056C8.58333 11.6277 8.32217 11.8889 8 11.8889C7.67783 11.8889 7.41667 11.6277 7.41667 11.3056V10.9167C7.41667 10.5945 7.67783 10.3333 8 10.3333Z" fill="#878787"/>
</g>
</svg>
