<svg width="40" height="40" viewBox="0 0 40 40" fill="none" xmlns="http://www.w3.org/2000/svg">
<circle cx="20" cy="20" r="20" fill="#273168"/>
<g clip-path="url(#clip0_789_8978)">
<path fill-rule="evenodd" clip-rule="evenodd" d="M20 11.25C15.3976 11.25 11.25 15.3976 11.25 20C11.25 24.6024 15.3976 28.75 20 28.75C24.6024 28.75 28.75 24.6024 28.75 20C28.75 15.3976 24.6024 11.25 20 11.25ZM10 20C10 14.4772 14.4772 10 20 10C25.5228 10 30 14.4772 30 20C30 25.5228 25.5228 30 20 30C14.4772 30 10 25.5228 10 20ZM20 14.4444C20.4602 14.4444 20.8333 14.8175 20.8333 15.2778V16.9444C20.8333 17.4047 20.4602 17.7778 20 17.7778C19.5398 17.7778 19.1667 17.4047 19.1667 16.9444V15.2778C19.1667 14.8175 19.5398 14.4444 20 14.4444ZM20 20C20.4602 20 20.8333 20.3731 20.8333 20.8333V24.7222C20.8333 25.1825 20.4602 25.5556 20 25.5556C19.5398 25.5556 19.1667 25.1825 19.1667 24.7222V20.8333C19.1667 20.3731 19.5398 20 20 20Z" fill="#FDFDFD"/>
</g>
<defs>
<clipPath id="clip0_789_8978">
<rect width="20" height="20" fill="white" transform="translate(10 10)"/>
</clipPath>
</defs>
</svg>
