<svg width="14" height="14" viewBox="0 0 14 14" fill="none" xmlns="http://www.w3.org/2000/svg">
<g id="icon element/?-b">
<circle id="Ellipse 40" cx="7" cy="7" r="6.5" stroke="#DCDCDC"/>
<path id="?" d="M6.31 8.21C6.07 6.6 7.77 5.95 7.77 5C7.77 4.5 7.44 4.18 6.92 4.18C6.48 4.18 6.13 4.41 5.81 4.74L5 4C5.52 3.41 6.23 3 7.1 3C8.3 3 9.18 3.62 9.18 4.9C9.18 6.32 7.44 6.8 7.59 8.21H6.31ZM6.95 10.87C6.43 10.87 6.04 10.45 6.04 9.91C6.04 9.36 6.43 8.95 6.95 8.95C7.48 8.95 7.87 9.36 7.87 9.91C7.87 10.45 7.48 10.87 6.95 10.87Z" fill="#DCDCDC"/>
</g>
</svg>
