<svg width="16" height="15" viewBox="0 0 16 15" fill="none" xmlns="http://www.w3.org/2000/svg">
<path d="M1 8.98485H2.25517C3.33665 8.98485 3.87739 8.98485 4.29046 9.16981C4.65381 9.3325 4.94922 9.5921 5.13436 9.91141C5.34483 10.2744 5.34483 10.7496 5.34483 11.7V12.5909C5.34483 12.7879 5.34483 12.8864 5.33553 12.9694C5.24523 13.775 4.51988 14.4125 3.60307 14.4918C3.50866 14.5 3.39658 14.5 3.17241 14.5C2.94825 14.5 2.83617 14.5 2.74176 14.4918C1.82495 14.4125 1.0996 13.775 1.0093 12.9694C1 12.8864 1 12.7879 1 12.5909L1 8.98485ZM1 8.98485V6.65152C1 3.25413 4.13401 0.5 8 0.5C11.866 0.5 15 3.25413 15 6.65152V8.98485M15 8.98485H13.7448C12.6633 8.98485 12.1226 8.98485 11.7095 9.16981C11.3462 9.3325 11.0508 9.5921 10.8656 9.91141C10.6552 10.2744 10.6552 10.7496 10.6552 11.7V12.5909C10.6552 12.7879 10.6552 12.8864 10.6645 12.9694C10.7548 13.775 11.4801 14.4125 12.3969 14.4918C12.4913 14.5 12.6034 14.5 12.8276 14.5C13.0517 14.5 13.1638 14.5 13.2582 14.4918C14.175 14.4125 14.9004 13.775 14.9907 12.9694C15 12.8864 15 12.7879 15 12.5909V8.98485Z" stroke="#FDFDFD" strokeLinejoin="round"/>
</svg>