<svg width="730" height="190" viewBox="0 0 730 190" fill="none" xmlns="http://www.w3.org/2000/svg">
<g clip-path="url(#clip0_1755_28702)">
<rect width="730" height="190" rx="10" fill="#69A7E4"/>
<path d="M613.934 147.665C613.934 106.165 647.826 72.5215 689.633 72.5215C731.44 72.5215 765.332 106.165 765.332 147.665C765.332 189.166 731.44 222.809 689.633 222.809C647.826 222.809 613.934 189.166 613.934 147.665Z" fill="#E2F5FC" fill-opacity="0.3"/>
<path d="M727.663 192.608C727.663 171.957 744.528 155.216 765.332 155.216C786.135 155.216 803 171.957 803 192.608C803 213.259 786.135 230 765.332 230C744.528 230 727.663 213.259 727.663 192.608Z" fill="#E2F5FC" fill-opacity="0.3"/>
<path d="M576.121 161.289C576.121 196.307 547.524 224.694 512.247 224.694C476.971 224.694 448.374 196.307 448.374 161.289C448.374 126.271 476.971 97.8836 512.247 97.8836C547.524 97.8836 576.121 126.271 576.121 161.289Z" fill="#E2F5FC" fill-opacity="0.3"/>
<path d="M514.802 63.8984C514.802 79.3062 502.219 91.7967 486.698 91.7967C471.176 91.7967 458.593 79.3062 458.593 63.8983C458.593 48.4905 471.176 36 486.698 36C502.219 36 514.802 48.4905 514.802 63.8984Z" fill="#E2F5FC" fill-opacity="0.3"/>
<path d="M482.099 113.101C482.099 125.987 471.575 136.434 458.593 136.434C445.612 136.434 435.088 125.987 435.088 113.101C435.088 100.214 445.612 89.7677 458.593 89.7677C471.575 89.7677 482.099 100.214 482.099 113.101Z" fill="#E2F5FC" fill-opacity="0.3"/>
<path d="M449.396 73.536C449.396 78.5785 445.278 82.6663 440.198 82.6663C435.118 82.6663 431 78.5785 431 73.536C431 68.4934 435.118 64.4056 440.198 64.4056C445.278 64.4056 449.396 68.4934 449.396 73.536Z" fill="#E2F5FC" fill-opacity="0.3"/>
</g>
<defs>
<clipPath id="clip0_1755_28702">
<rect width="730" height="190" rx="10" fill="white"/>
</clipPath>
</defs>
</svg>
