<svg width="58" height="59" viewBox="0 0 58 59" fill="none" xmlns="http://www.w3.org/2000/svg">
<rect y="0.25" width="58" height="58" rx="10" fill="#3F51B5"/>
<path d="M15 32.2197H17.5103C19.6733 32.2197 20.7548 32.2197 21.5809 32.5896C22.3076 32.915 22.8984 33.4342 23.2687 34.0728C23.6897 34.7988 23.6897 35.7492 23.6897 37.65V39.4318C23.6897 39.8258 23.6897 40.0228 23.6711 40.1887C23.4905 41.8001 22.0398 43.075 20.2061 43.2337C20.0173 43.25 19.7932 43.25 19.3448 43.25C18.8965 43.25 18.6723 43.25 18.4835 43.2337C16.6499 43.075 15.1992 41.8001 15.0186 40.1887C15 40.0228 15 39.8258 15 39.4318L15 32.2197ZM15 32.2197V27.553C15 20.7583 21.268 15.25 29 15.25C36.732 15.25 43 20.7583 43 27.553V32.2197M43 32.2197H40.4897C38.3267 32.2197 37.2452 32.2197 36.4191 32.5896C35.6924 32.915 35.1016 33.4342 34.7313 34.0728C34.3103 34.7988 34.3103 35.7492 34.3103 37.65V39.4318C34.3103 39.8258 34.3103 40.0228 34.3289 40.1887C34.5095 41.8001 35.9602 43.075 37.7939 43.2337C37.9827 43.25 38.2068 43.25 38.6552 43.25C39.1035 43.25 39.3277 43.25 39.5165 43.2337C41.3501 43.075 42.8008 41.8001 42.9814 40.1887C43 40.0228 43 39.8258 43 39.4318V32.2197Z" stroke="#FDFDFD" stroke-width="2" strokeLinejoin="round"/>
</svg>
