<svg width="58" height="59" viewBox="0 0 58 59" fill="none" xmlns="http://www.w3.org/2000/svg">
<rect y="0.25" width="58" height="58" rx="10" fill="#9BD5ED"/>
<path d="M41.303 35.5073V40.1603C41.303 41.2418 41.303 41.7826 41.1181 42.1956C40.9554 42.559 40.6958 42.8544 40.3765 43.0395C40.0135 43.25 39.5383 43.25 38.5879 43.25H19.4121C18.4617 43.25 17.9865 43.25 17.6235 43.0395C17.3042 42.8544 17.0446 42.559 16.8819 42.1956C16.697 41.7826 16.697 41.2418 16.697 40.1603V35.5073M34.5152 21.0431V18.3397C34.5152 17.2582 34.5152 16.7174 34.3302 16.3044C34.1675 15.941 33.9079 15.6456 33.5886 15.4605C33.2256 15.25 32.7504 15.25 31.8 15.25H26.2C25.2496 15.25 24.7744 15.25 24.4114 15.4605C24.0921 15.6456 23.8325 15.941 23.6698 16.3044C23.4848 16.7174 23.4848 17.2582 23.4848 18.3397V21.0431M32.8182 32.6293V37.4569M25.1818 32.6293V37.4569M17.7152 35.5259H40.2848C41.2352 35.5259 41.7104 35.5259 42.0734 35.3154C42.3927 35.1303 42.6523 34.8348 42.815 34.4715C43 34.0584 43 33.5177 43 32.4362V24.1328C43 23.0513 43 22.5105 42.815 22.0975C42.6523 21.7341 42.3927 21.4387 42.0734 21.2536C41.7104 21.0431 41.2352 21.0431 40.2848 21.0431H17.7152C16.7648 21.0431 16.2896 21.0431 15.9266 21.2536C15.6073 21.4387 15.3477 21.7341 15.185 22.0975C15 22.5105 15 23.0513 15 24.1328V32.4362C15 33.5177 15 34.0584 15.185 34.4715C15.3477 34.8348 15.6073 35.1303 15.9266 35.3154C16.2896 35.5259 16.7648 35.5259 17.7152 35.5259Z" stroke="#FDFDFD" stroke-width="2" strokeLinecap="round" strokeLinejoin="round"/>
</svg>
