<svg width="16" height="16" viewBox="0 0 16 16" fill="none" xmlns="http://www.w3.org/2000/svg">
<path fill-rule="evenodd" clip-rule="evenodd" d="M8 1C6.95875 1 5.67576 1.33978 4.64081 2.04023C3.59477 2.74818 2.76316 3.85687 2.76316 5.37687V5.39223V5.40757V5.42288V5.43816V5.45342V5.46865V5.48385V5.49902V5.51417V5.5293V5.54439V5.55946V5.5745V5.58952V5.6045V5.61947V5.6344V5.64931V5.66419V5.67904V5.69387V5.70867V5.72345V5.7382V5.75292V5.76761V5.78228V5.79692V5.81153V5.82612V5.84068V5.85521V5.86972V5.8842V5.89866V5.91308V5.92748V5.94186V5.9562V5.97053V5.98482V5.99909V6.01333V6.02754V6.04173V6.05589V6.07002V6.08413V6.09821V6.11227V6.1263V6.1403V6.15427V6.16822V6.18214V6.19604V6.20991V6.22375V6.23756V6.25135V6.26511V6.27885V6.29256V6.30624V6.3199V6.33353V6.34713V6.36071V6.37426V6.38778V6.40128V6.41475V6.4282V6.44162V6.45501V6.46837V6.48171V6.49502V6.50831V6.52157V6.5348V6.54801V6.56119V6.57434V6.58747V6.60057V6.61365V6.62669V6.63972V6.65271V6.66568V6.67862V6.69154V6.70443V6.71729V6.73013V6.74294V6.75573V6.76848V6.78122V6.79392V6.8066V6.81925V6.83188V6.84448V6.85706V6.8696V6.88213V6.89462V6.90709V6.91953V6.93195V6.94434V6.9567V6.96904V6.98135V6.99364V7.0059V7.01813V7.03034V7.04252V7.05467V7.0668V7.0789V7.09098V7.10303V7.11505V7.12705V7.13902V7.15096V7.16288V7.17478V7.18664V7.19848V7.2103V7.22208V7.23385V7.24558V7.25729V7.26898V7.28063V7.29227V7.30387V7.31545V7.327V7.33853V7.35003V7.36151V7.37295V7.38438V7.39577V7.40714V7.41849V7.42981V7.4411V7.45237V7.46361V7.47482V7.48601V7.49717V7.50831V7.51942V7.53051V7.54156V7.5526V7.5636V7.57458V7.58554V7.59647V7.60737V7.61825V7.6291V7.63992V7.65072V7.6615V7.67224V7.68296V7.69366V7.70433V7.71497V7.72559V7.73618V7.74675V7.75729V7.7678V7.77829V7.78876V7.79919V7.8096V7.81999V7.83035V7.84068V7.85099V7.86127V7.87153V7.88176V7.89196V7.90214V7.91229V7.92242V7.93252V7.9426V7.95264V7.96267V7.97267V7.98264V7.99259V8.00251V8.0124V8.02227V8.03212V8.04193V8.05173V8.06149V8.07123V8.08095V8.09064V8.1003V8.10994V8.11955V8.12914V8.1387V8.14823V8.15774V8.16723V8.17669V8.18612V8.19553V8.20491V8.21426V8.22359V8.2329V8.24218V8.25143V8.26066V8.26986V8.27904V8.28819V8.29731V8.30641V8.31549V8.32454V8.33356V8.34256V8.35153V8.36048V8.3694V8.37829V8.38716V8.39601V8.40483V8.41362V8.42239V8.43113V8.43985V8.44854V8.4572V8.46584V8.47446V8.48305V8.49161V8.50015V8.50866V8.51715V8.52561V8.53405V8.54246V8.55085V8.55921V8.56754V8.57585V8.58414V8.5924V8.60063V8.60884V8.61702V8.62518V8.63331V8.64142V8.6495V8.65756V8.66559V8.67359V8.68157V8.68953V8.69746V8.70536V8.71324V8.72109V8.72892V8.73672V8.7445V8.75225V8.75998V8.76768V8.77536V8.78301V8.79063V8.79823V8.80581V8.81336V8.82088V8.82838V8.83586V8.84331V8.85073V8.85813V8.8655V8.87285V8.88017V8.88747V8.89474V8.90199V8.90921V8.91641V8.92358V8.93073V8.93785V8.94495V8.95202V8.95906V8.96609V8.97308V8.98005V8.987V8.99392V9.00081V9.00768V9.01453V9.02135V9.02814V9.03491V9.04166V9.04838V9.05507V9.06174V9.06839V9.07501V9.0816V9.08817V9.09471V9.10123V9.10773V9.1142V9.12064V9.12706V9.13346V9.13983V9.14617V9.15249V9.15878V9.16505V9.1713V9.17752V9.18371V9.18988V9.19603V9.20215V9.20824V9.21431V9.22035V9.22637V9.23237V9.23834V9.24429V9.25021V9.2561V9.26197V9.26782V9.27364V9.27943V9.2852V9.29095V9.29667V9.30237V9.30804V9.31369V9.31931V9.32491V9.33048V9.33602V9.34155V9.34705V9.35252V9.35797V9.36339V9.36879V9.37416V9.37951V9.38484V9.39014V9.39541V9.40066V9.40589V9.41109V9.41626V9.42141V9.42654V9.43164V9.43672V9.44177V9.4468V9.4518V9.45678V9.46173V9.46666V9.47156V9.47644V9.4813V9.48613V9.49093V9.49571V9.50047V9.5052V9.50991V9.51459V9.51925V9.52388V9.52849V9.53307V9.53763V9.54216V9.54667V9.55116V9.55562V9.56005V9.56447V9.56885V9.57322V9.57755V9.58187V9.58615V9.59042V9.59466V9.59887V9.60306V9.60723V9.61137V9.61549V9.61958V9.62365V9.62769V9.63171V9.6357V9.63967V9.64362V9.64754V9.65144V9.65531V9.65916V9.66298V9.66678V9.67055V9.6743V9.67803V9.68173V9.68541V9.68906V9.69269V9.69629V9.69987V9.70342V9.70695V9.71046V9.71394V9.7174V9.72083V9.72424V9.72762V9.73098V9.73432V9.73763V9.74091V9.74418V9.74742V9.74865L1.5396 12.6374C1.47419 12.7918 1.49055 12.9687 1.58317 13.1085C1.67578 13.2483 1.83231 13.3324 2 13.3324H5.15411C5.78259 14.4937 6.73461 15.1739 7.78385 15.1739C8.83308 15.1739 9.7851 14.4937 10.4136 13.3324H14C14.1677 13.3324 14.3242 13.2483 14.4168 13.1085C14.5094 12.9687 14.5258 12.7918 14.4604 12.6374L13.2368 9.74865V5.37687C13.2368 5.36332 13.2363 5.34978 13.2352 5.33627C13.1771 4.6225 12.9165 3.53975 12.1285 2.62706C11.3245 1.6959 10.0213 1 8 1ZM9.22988 13.3324H6.33781C6.79246 13.9288 7.32017 14.1739 7.78385 14.1739C8.24752 14.1739 8.77523 13.9288 9.22988 13.3324ZM3.76316 5.37687C3.76316 4.27253 4.3526 3.44278 5.2013 2.86839C6.06109 2.28649 7.14652 2 8 2C9.76822 2 10.7808 2.59639 11.3716 3.28059C11.9714 3.97537 12.1865 4.81976 12.2368 5.39787V9.85017C12.2368 9.91717 12.2503 9.98349 12.2764 10.0452L13.2452 12.3324H2.75479L3.72356 10.0452C3.74969 9.98349 3.76316 9.91717 3.76316 9.85017V9.84783V9.84547V9.84308V9.84066V9.83822V9.83576V9.83327V9.83076V9.82823V9.82567V9.82309V9.82048V9.81785V9.81519V9.81251V9.80981V9.80708V9.80432V9.80155V9.79875V9.79592V9.79307V9.7902V9.7873V9.78438V9.78143V9.77846V9.77546V9.77245V9.7694V9.76633V9.76324V9.76012V9.75698V9.75382V9.75063V9.74742V9.74418V9.74091V9.73763V9.73432V9.73098V9.72762V9.72424V9.72083V9.7174V9.71394V9.71046V9.70695V9.70342V9.69987V9.69629V9.69269V9.68906V9.68541V9.68173V9.67803V9.6743V9.67055V9.66678V9.66298V9.65916V9.65531V9.65144V9.64754V9.64362V9.63967V9.6357V9.63171V9.62769V9.62365V9.61958V9.61549V9.61137V9.60723V9.60306V9.59887V9.59466V9.59042V9.58615V9.58187V9.57755V9.57322V9.56885V9.56447V9.56005V9.55562V9.55116V9.54667V9.54216V9.53763V9.53307V9.52849V9.52388V9.51925V9.51459V9.50991V9.5052V9.50047V9.49571V9.49093V9.48613V9.4813V9.47644V9.47156V9.46666V9.46173V9.45678V9.4518V9.4468V9.44177V9.43672V9.43164V9.42654V9.42141V9.41626V9.41109V9.40589V9.40066V9.39541V9.39014V9.38484V9.37951V9.37416V9.36879V9.36339V9.35797V9.35252V9.34705V9.34155V9.33602V9.33048V9.32491V9.31931V9.31369V9.30804V9.30237V9.29667V9.29095V9.2852V9.27943V9.27364V9.26782V9.26197V9.2561V9.25021V9.24429V9.23834V9.23237V9.22637V9.22035V9.21431V9.20824V9.20215V9.19603V9.18988V9.18371V9.17752V9.1713V9.16505V9.15878V9.15249V9.14617V9.13983V9.13346V9.12706V9.12064V9.1142V9.10773V9.10123V9.09471V9.08817V9.0816V9.07501V9.06839V9.06174V9.05507V9.04838V9.04166V9.03491V9.02814V9.02135V9.01453V9.00768V9.00081V8.99392V8.987V8.98005V8.97308V8.96609V8.95906V8.95202V8.94495V8.93785V8.93073V8.92358V8.91641V8.90921V8.90199V8.89474V8.88747V8.88017V8.87285V8.8655V8.85813V8.85073V8.84331V8.83586V8.82838V8.82088V8.81336V8.80581V8.79823V8.79063V8.78301V8.77536V8.76768V8.75998V8.75225V8.7445V8.73672V8.72892V8.72109V8.71324V8.70536V8.69746V8.68953V8.68157V8.67359V8.66559V8.65756V8.6495V8.64142V8.63331V8.62518V8.61702V8.60884V8.60063V8.5924V8.58414V8.57585V8.56754V8.55921V8.55085V8.54246V8.53405V8.52561V8.51715V8.50866V8.50015V8.49161V8.48305V8.47446V8.46584V8.4572V8.44854V8.43985V8.43113V8.42239V8.41362V8.40483V8.39601V8.38716V8.37829V8.3694V8.36048V8.35153V8.34256V8.33356V8.32454V8.31549V8.30641V8.29731V8.28819V8.27904V8.26986V8.26066V8.25143V8.24218V8.2329V8.22359V8.21426V8.20491V8.19553V8.18612V8.17669V8.16723V8.15774V8.14823V8.1387V8.12914V8.11955V8.10994V8.1003V8.09064V8.08095V8.07123V8.06149V8.05173V8.04193V8.03212V8.02227V8.0124V8.00251V7.99259V7.98264V7.97267V7.96267V7.95264V7.9426V7.93252V7.92242V7.91229V7.90214V7.89196V7.88176V7.87153V7.86127V7.85099V7.84068V7.83035V7.81999V7.8096V7.79919V7.78876V7.77829V7.7678V7.75729V7.74675V7.73618V7.72559V7.71497V7.70433V7.69366V7.68296V7.67224V7.6615V7.65072V7.63992V7.6291V7.61825V7.60737V7.59647V7.58554V7.57458V7.5636V7.5526V7.54156V7.53051V7.51942V7.50831V7.49717V7.48601V7.47482V7.46361V7.45237V7.4411V7.42981V7.41849V7.40714V7.39577V7.38438V7.37295V7.36151V7.35003V7.33853V7.327V7.31545V7.30387V7.29227V7.28063V7.26898V7.25729V7.24558V7.23385V7.22208V7.2103V7.19848V7.18664V7.17478V7.16288V7.15096V7.13902V7.12705V7.11505V7.10303V7.09098V7.0789V7.0668V7.05467V7.04252V7.03034V7.01813V7.0059V6.99364V6.98135V6.96904V6.9567V6.94434V6.93195V6.91953V6.90709V6.89462V6.88213V6.8696V6.85706V6.84448V6.83188V6.81925V6.8066V6.79392V6.78122V6.76848V6.75573V6.74294V6.73013V6.71729V6.70443V6.69154V6.67862V6.66568V6.65271V6.63972V6.62669V6.61365V6.60057V6.58747V6.57434V6.56119V6.54801V6.5348V6.52157V6.50831V6.49502V6.48171V6.46837V6.45501V6.44162V6.4282V6.41475V6.40128V6.38778V6.37426V6.36071V6.34713V6.33353V6.3199V6.30624V6.29256V6.27885V6.26511V6.25135V6.23756V6.22375V6.20991V6.19604V6.18214V6.16822V6.15427V6.1403V6.1263V6.11227V6.09821V6.08413V6.07002V6.05589V6.04173V6.02754V6.01333V5.99909V5.98482V5.97053V5.9562V5.94186V5.92748V5.91308V5.89866V5.8842V5.86972V5.85521V5.84068V5.82612V5.81153V5.79692V5.78228V5.76761V5.75292V5.7382V5.72345V5.70867V5.69387V5.67904V5.66419V5.64931V5.6344V5.61947V5.6045V5.58952V5.5745V5.55946V5.54439V5.5293V5.51417V5.49902V5.48385V5.46865V5.45342V5.43816V5.42288V5.40757V5.39223V5.37687Z" fill="#424242"/>
</svg>
