<svg width="22" height="23" viewBox="0 0 24 25" fill="none" xmlns="http://www.w3.org/2000/svg">
<path d="M1.49512 14.7273H3.37144C4.98811 14.7273 5.79644 14.7273 6.41393 15.0047C6.95709 15.2488 7.39869 15.6382 7.67544 16.1171C7.99006 16.6616 7.99006 17.3744 7.99006 18.8V20.1364C7.99006 20.4319 7.99006 20.5796 7.97616 20.704C7.84118 21.9126 6.75687 22.8687 5.38636 22.9877C5.24523 23 5.07769 23 4.74259 23C4.4075 23 4.23995 23 4.09882 22.9877C2.72831 22.8687 1.644 21.9126 1.50902 20.704C1.49512 20.5796 1.49512 20.4319 1.49512 20.1364L1.49512 14.7273ZM1.49512 14.7273V11.2273C1.49512 6.13119 6.18005 2 11.9592 2C17.7384 2 22.4233 6.13119 22.4233 11.2273V14.7273M22.4233 14.7273H20.547C18.9303 14.7273 18.122 14.7273 17.5045 15.0047C16.9613 15.2488 16.5197 15.6382 16.243 16.1171C15.9283 16.6616 15.9283 17.3744 15.9283 18.8V20.1364C15.9283 20.4319 15.9283 20.5796 15.9422 20.704C16.0772 21.9126 17.1615 22.8687 18.532 22.9877C18.6732 23 18.8407 23 19.1758 23C19.5109 23 19.6784 23 19.8196 22.9877C21.1901 22.8687 22.2744 21.9126 22.4094 20.704C22.4233 20.5796 22.4233 20.4319 22.4233 20.1364V14.7273Z" stroke="#424242" strokeLinejoin="round"/>
</svg>
